<svg xmlns="http://www.w3.org/2000/svg" viewBox="0 -32768 6072 65536" preserveAspectRatio="none"><g stroke="#fff" stroke-width="2"><path d="M 0 0 V 0 M 1 0 V 0 M 2 0 V 0 M 3 0 V 0 M 4 0 V 0 M 5 0 V 0 M 6 0 V 0 M 7 0 V 0 M 8 0 V 0 M 9 0 V 0 M 10 0 V 0 M 11 0 V 0 M 12 0 V 0 M 13 0 V 0 M 14 0 V 0 M 15 0 V 0 M 16 0 V 0 M 17 0 V 0 M 18 0 V 0 M 19 0 V 0 M 20 0 V 0 M 21 0 V 0 M 22 0 V 0 M 23 0 V 0 M 24 0 V 0 M 25 0 V 0 M 26 0 V 0 M 27 0 V 0 M 28 0 V 0 M 29 0 V 0 M 30 0 V 0 M 31 0 V 0 M 32 0 V 0 M 33 0 V 0 M 34 0 V 0 M 35 0 V 0 M 36 0 V 0 M 37 0 V 0 M 38 0 V 0 M 39 0 V 0 M 40 0 V 0 M 41 0 V 0 M 42 0 V 0 M 43 0 V 0 M 44 0 V 0 M 45 0 V 0 M 46 0 V 0 M 47 0 V 0 M 48 0 V 0 M 49 0 V 0 M 50 0 V 0 M 51 0 V 0 M 52 0 V 0 M 53 0 V 0 M 54 0 V 0 M 55 0 V 0 M 56 0 V 0 M 57 0 V 0 M 58 0 V 0 M 59 0 V 0 M 60 0 V 0 M 61 0 V 0 M 62 0 V 0 M 63 0 V 0 M 64 0 V 0 M 65 0 V 0 M 66 0 V 0 M 67 0 V 0 M 68 0 V 0 M 69 0 V 0 M 70 0 V 0 M 71 0 V 0 M 72 0 V 0 M 73 0 V 0 M 74 0 V 0 M 75 0 V 0 M 76 0 V 0 M 77 0 V 0 M 78 0 V 0 M 79 0 V 0 M 80 0 V 0 M 81 0 V 0 M 82 0 V 0 M 83 0 V 0 M 84 0 V 0 M 85 0 V 0 M 86 0 V 0 M 87 0 V 0 M 88 0 V 0 M 89 0 V 0 M 90 0 V 0 M 91 0 V 0 M 92 0 V 0 M 93 0 V 0 M 94 0 V 0 M 95 0 V 0 M 96 0 V 0 M 97 0 V 0 M 98 0 V 0 M 99 0 V 0 M 100 0 V 0 M 101 0 V 0 M 102 0 V 0 M 103 0 V 0 M 104 0 V 0 M 105 0 V 0 M 106 0 V 0 M 107 0 V 0 M 108 0 V 0 M 109 0 V 0 M 110 0 V 0 M 111 0 V 0 M 112 0 V 0 M 113 0 V 0 M 114 0 V 0 M 115 0 V 0 M 116 0 V 0 M 117 0 V 0 M 118 0 V 0 M 119 0 V 0 M 120 0 V 0 M 121 0 V 0 M 122 0 V 0 M 123 0 V 0 M 124 0 V 0 M 125 0 V 0 M 126 0 V 0 M 127 0 V 0 M 128 0 V 0 M 129 0 V 0 M 130 0 V 0 M 131 0 V 0 M 132 0 V 0 M 133 0 V 0 M 134 0 V 0 M 135 0 V 0 M 136 0 V 0 M 137 0 V 0 M 138 0 V 0 M 139 0 V 0 M 140 0 V 0 M 141 0 V 0 M 142 0 V 0 M 143 0 V 0 M 144 0 V 0 M 145 0 V 0 M 146 0 V 0 M 147 0 V 0 M 148 0 V 0 M 149 0 V 0 M 150 0 V 0 M 151 0 V 0 M 152 0 V 0 M 153 0 V 0 M 154 0 V 0 M 155 0 V 0 M 156 0 V 0 M 157 0 V 0 M 158 0 V 0 M 159 0 V 0 M 160 0 V 0 M 161 0 V 0 M 162 0 V 0 M 163 0 V 0 M 164 0 V 0 M 165 0 V 0 M 166 0 V 0 M 167 0 V 0 M 168 0 V 0 M 169 0 V 0 M 170 0 V 0 M 171 0 V 0 M 172 0 V 0 M 173 0 V 0 M 174 0 V 0 M 175 0 V 0 M 176 0 V 0 M 177 0 V 0 M 178 0 V 0 M 179 0 V 0 M 180 0 V 0 M 181 0 V 0 M 182 0 V 0 M 183 0 V 0 M 184 0 V 0 M 185 0 V 0 M 186 0 V 0 M 187 0 V 0 M 188 0 V 0 M 189 0 V 0 M 190 0 V 0 M 191 0 V 0 M 192 0 V 0 M 193 0 V 0 M 194 0 V 0 M 195 0 V 0 M 196 0 V 0 M 197 0 V 0 M 198 0 V 0 M 199 0 V 0 M 200 0 V 0 M 201 0 V 0 M 202 0 V 0 M 203 0 V 0 M 204 0 V 0 M 205 0 V 0 M 206 0 V 0 M 207 0 V 0 M 208 0 V 0 M 209 0 V 0 M 210 0 V 0 M 211 0 V 0 M 212 0 V 0 M 213 0 V 0 M 214 0 V 0 M 215 0 V 0 M 216 0 V 0 M 217 0 V 0 M 218 0 V 0 M 219 0 V 0 M 220 0 V 0 M 221 0 V 0 M 222 0 V 0 M 223 0 V 0 M 224 0 V 0 M 225 0 V 0 M 226 0 V 0 M 227 0 V 0 M 228 0 V 0 M 229 0 V 0 M 230 0 V 0 M 231 0 V 0 M 232 0 V 0 M 233 0 V 0 M 234 0 V 0 M 235 0 V 0 M 236 0 V 0 M 237 0 V 0 M 238 0 V 0 M 239 0 V 0 M 240 0 V 0 M 241 0 V 0 M 242 0 V 0 M 243 0 V 0 M 244 0 V 0 M 245 0 V 0 M 246 0 V 0 M 247 0 V 0 M 248 0 V 0 M 249 0 V 0 M 250 0 V 0 M 251 0 V 0 M 252 0 V 0 M 253 0 V 0 M 254 0 V 0 M 255 0 V 0 M 256 0 V 0 M 257 0 V 0 M 258 0 V 0 M 259 0 V 0 M 260 0 V 0 M 261 0 V 0 M 262 0 V 0 M 263 0 V 0 M 264 0 V 0 M 265 0 V 0 M 266 0 V 0 M 267 0 V 0 M 268 0 V 0 M 269 0 V 0 M 270 0 V 0 M 271 0 V 0 M 272 0 V 0 M 273 0 V 0 M 274 0 V 0 M 275 0 V 0 M 276 0 V 0 M 277 0 V 0 M 278 0 V 0 M 279 0 V 0 M 280 0 V 0 M 281 0 V 0 M 282 0 V 0 M 283 0 V 0 M 284 0 V 0 M 285 0 V 0 M 286 0 V 0 M 287 0 V 0 M 288 0 V 0 M 289 0 V 0 M 290 0 V 0 M 291 0 V 0 M 292 0 V 0 M 293 0 V 0 M 294 0 V 0 M 295 0 V 0 M 296 0 V 0 M 297 0 V 0 M 298 0 V 0 M 299 0 V 0 M 300 0 V 0 M 301 0 V 0 M 302 0 V 0 M 303 0 V 0 M 304 0 V 0 M 305 0 V 0 M 306 0 V 0 M 307 0 V 0 M 308 0 V 0 M 309 0 V 0 M 310 0 V 0 M 311 0 V 0 M 312 0 V 0 M 313 0 V 0 M 314 0 V 0 M 315 0 V 0 M 316 0 V 0 M 317 0 V 0 M 318 0 V 0 M 319 0 V 0 M 320 0 V 0 M 321 0 V 0 M 322 0 V 0 M 323 0 V 0 M 324 0 V 0 M 325 0 V 0 M 326 0 V 0 M 327 0 V 0 M 328 0 V 0 M 329 0 V 0 M 330 0 V 0 M 331 0 V 0 M 332 0 V 0 M 333 0 V 0 M 334 0 V 0 M 335 0 V 0 M 336 0 V 0 M 337 0 V 0 M 338 0 V 0 M 339 0 V 0 M 340 0 V 0 M 341 0 V 0 M 342 0 V 0 M 343 0 V 0 M 344 0 V 0 M 345 0 V 0 M 346 0 V 0 M 347 0 V 0 M 348 0 V 0 M 349 0 V 0 M 350 0 V 0 M 351 0 V 0 M 352 0 V 0 M 353 0 V 0 M 354 0 V 0 M 355 0 V 0 M 356 0 V 0 M 357 0 V 0 M 358 0 V 0 M 359 0 V 0 M 360 0 V 0 M 361 0 V 0 M 362 0 V 0 M 363 0 V 0 M 364 0 V 0 M 365 0 V 0 M 366 0 V 0 M 367 0 V 0 M 368 0 V 0 M 369 0 V 0 M 370 0 V 0 M 371 0 V 0 M 372 0 V 0 M 373 0 V 0 M 374 0 V 0 M 375 0 V 0 M 376 0 V 0 M 377 0 V 0 M 378 0 V 0 M 379 0 V 0 M 380 0 V 0 M 381 0 V 0 M 382 0 V 0 M 383 0 V 0 M 384 0 V 0 M 385 0 V 0 M 386 0 V 0 M 387 0 V 0 M 388 0 V 0 M 389 0 V 0 M 390 0 V 0 M 391 0 V 0 M 392 0 V 0 M 393 0 V 0 M 394 0 V 0 M 395 0 V 0 M 396 0 V 0 M 397 0 V 0 M 398 0 V 0 M 399 0 V 0 M 400 0 V 0 M 401 0 V 0 M 402 0 V 0 M 403 0 V 0 M 404 0 V 0 M 405 0 V 0 M 406 0 V 0 M 407 0 V 0 M 408 0 V 0 M 409 0 V 0 M 410 0 V 0 M 411 0 V 0 M 412 0 V 0 M 413 0 V 0 M 414 0 V 0 M 415 0 V 0 M 416 0 V 0 M 417 0 V 0 M 418 0 V 0 M 419 0 V 0 M 420 0 V 0 M 421 0 V 0 M 422 0 V 0 M 423 0 V 0 M 424 0 V 0 M 425 0 V 0 M 426 0 V 0 M 427 0 V 0 M 428 0 V 0 M 429 0 V 0 M 430 0 V 0 M 431 0 V 0 M 432 0 V 0 M 433 0 V 0 M 434 0 V 0 M 435 0 V 0 M 436 0 V 0 M 437 0 V 0 M 438 0 V 0 M 439 0 V 0 M 440 0 V 0 M 441 0 V 0 M 442 0 V 0 M 443 0 V 0 M 444 0 V 0 M 445 0 V 0 M 446 0 V 0 M 447 0 V 0 M 448 0 V 0 M 449 0 V 0 M 450 0 V 0 M 451 0 V 0 M 452 0 V 0 M 453 0 V 0 M 454 0 V 0 M 455 0 V 0 M 456 0 V 0 M 457 0 V 0 M 458 0 V 0 M 459 0 V 0 M 460 0 V 0 M 461 0 V 0 M 462 0 V 0 M 463 0 V 0 M 464 0 V 0 M 465 0 V 0 M 466 0 V 0 M 467 0 V 0 M 468 0 V 0 M 469 0 V 0 M 470 0 V 0 M 471 0 V 0 M 472 0 V 0 M 473 0 V 0 M 474 0 V 0 M 475 0 V 0 M 476 0 V 0 M 477 0 V 0 M 478 0 V 0 M 479 0 V 0 M 480 0 V 0 M 481 0 V 0 M 482 0 V 0 M 483 0 V 0 M 484 0 V 0 M 485 0 V 0 M 486 0 V 0 M 487 0 V 0 M 488 0 V 0 M 489 0 V 0 M 490 0 V 0 M 491 0 V 0 M 492 0 V 0 M 493 0 V 0 M 494 0 V 0 M 495 0 V 0 M 496 0 V 0 M 497 0 V 0 M 498 0 V 0 M 499 0 V 0 M 500 0 V 0 M 501 0 V 0 M 502 0 V 0 M 503 0 V 0 M 504 0 V 0 M 505 0 V 0 M 506 0 V 0 M 507 0 V 0 M 508 0 V 0 M 509 0 V 0 M 510 0 V 0 M 511 0 V 0 M 512 0 V 0 M 513 0 V 0 M 514 0 V 0 M 515 0 V 0 M 516 0 V 0 M 517 0 V 0 M 518 0 V 0 M 519 0 V 0 M 520 0 V 0 M 521 0 V 0 M 522 0 V 0 M 523 0 V 0 M 524 0 V 0 M 525 0 V 0 M 526 0 V 0 M 527 0 V 0 M 528 0 V 0 M 529 0 V 0 M 530 0 V 0 M 531 0 V 0 M 532 0 V 0 M 533 0 V 0 M 534 0 V 0 M 535 0 V 0 M 536 0 V 0 M 537 0 V 0 M 538 0 V 0 M 539 0 V 0 M 540 0 V 0 M 541 0 V 0 M 542 0 V 0 M 543 0 V 0 M 544 0 V 0 M 545 0 V 0 M 546 0 V 0 M 547 0 V 0 M 548 0 V 0 M 549 0 V 0 M 550 0 V 0 M 551 0 V 0 M 552 0 V 0 M 553 0 V 0 M 554 0 V 0 M 555 0 V 0 M 556 0 V 0 M 557 0 V 0 M 558 0 V 0 M 559 0 V 0 M 560 0 V 0 M 561 0 V 0 M 562 0 V 0 M 563 0 V 0 M 564 0 V 0 M 565 0 V 0 M 566 0 V 0 M 567 0 V 0 M 568 0 V 0 M 569 0 V 0 M 570 0 V 0 M 571 0 V 0 M 572 0 V 0 M 573 0 V 0 M 574 0 V 0 M 575 0 V 0 M 576 0 V 0 M 577 0 V 0 M 578 0 V 0 M 579 0 V 0 M 580 0 V 0 M 581 0 V 0 M 582 0 V 0 M 583 0 V 0 M 584 0 V 0 M 585 0 V 0 M 586 0 V 0 M 587 0 V 0 M 588 0 V 0 M 589 0 V 0 M 590 0 V 0 M 591 0 V 0 M 592 0 V 0 M 593 0 V 0 M 594 0 V 0 M 595 0 V 0 M 596 0 V 0 M 597 0 V 0 M 598 0 V 0 M 599 0 V 0 M 600 0 V 0 M 601 0 V 0 M 602 0 V 0 M 603 0 V 0 M 604 0 V 0 M 605 0 V 0 M 606 0 V 0 M 607 0 V 0 M 608 0 V 0 M 609 0 V 0 M 610 0 V 0 M 611 0 V 0 M 612 0 V 0 M 613 0 V 0 M 614 0 V 0 M 615 0 V 0 M 616 0 V 0 M 617 0 V 0 M 618 0 V 0 M 619 0 V 0 M 620 0 V 0 M 621 0 V 0 M 622 0 V 0 M 623 0 V 0 M 624 0 V 0 M 625 0 V 0 M 626 0 V 0 M 627 0 V 0 M 628 0 V 0 M 629 0 V 0 M 630 0 V 0 M 631 0 V 0 M 632 0 V 0 M 633 0 V 0 M 634 0 V 0 M 635 0 V 0 M 636 0 V 0 M 637 0 V 0 M 638 0 V 0 M 639 0 V 0 M 640 0 V 0 M 641 0 V 0 M 642 0 V 0 M 643 0 V 0 M 644 0 V 0 M 645 0 V 0 M 646 0 V 0 M 647 0 V 0 M 648 0 V 0 M 649 0 V 0 M 650 0 V 0 M 651 0 V 0 M 652 0 V 0 M 653 0 V 0 M 654 0 V 0 M 655 0 V 0 M 656 0 V 0 M 657 0 V 0 M 658 0 V 0 M 659 0 V 0 M 660 0 V 0 M 661 0 V 0 M 662 0 V 0 M 663 0 V 0 M 664 0 V 0 M 665 0 V 0 M 666 0 V 0 M 667 0 V 0 M 668 0 V 0 M 669 0 V 0 M 670 0 V 0 M 671 0 V 0 M 672 0 V 0 M 673 0 V 0 M 674 0 V 0 M 675 0 V 0 M 676 0 V 0 M 677 0 V 0 M 678 0 V 0 M 679 0 V 0 M 680 0 V 0 M 681 0 V 0 M 682 0 V 0 M 683 0 V 0 M 684 0 V 0 M 685 0 V 0 M 686 0 V 0 M 687 0 V 0 M 688 0 V 0 M 689 0 V 0 M 690 0 V 0 M 691 0 V 0 M 692 0 V 0 M 693 0 V 0 M 694 0 V 0 M 695 0 V 0 M 696 0 V 0 M 697 0 V 0 M 698 0 V 0 M 699 0 V 0 M 700 0 V 0 M 701 0 V 0 M 702 0 V 0 M 703 0 V 0 M 704 0 V 0 M 705 0 V 0 M 706 0 V 0 M 707 0 V 0 M 708 0 V 0 M 709 0 V 0 M 710 0 V 0 M 711 0 V 0 M 712 0 V 0 M 713 0 V 0 M 714 0 V 0 M 715 0 V 0 M 716 0 V 0 M 717 0 V 0 M 718 0 V 0 M 719 0 V 0 M 720 0 V 0 M 721 0 V 0 M 722 0 V 0 M 723 0 V 0 M 724 0 V 0 M 725 0 V 0 M 726 0 V 0 M 727 0 V 0 M 728 0 V 0 M 729 0 V 0 M 730 0 V 0 M 731 0 V 0 M 732 0 V 0 M 733 0 V 0 M 734 0 V 0 M 735 0 V 0 M 736 0 V 0 M 737 0 V 0 M 738 0 V 0 M 739 0 V 0 M 740 0 V 0 M 741 0 V 0 M 742 0 V 0 M 743 0 V 0 M 744 0 V 0 M 745 0 V 0 M 746 0 V 0 M 747 0 V 0 M 748 0 V 0 M 749 0 V 0 M 750 0 V 0 M 751 0 V 0 M 752 0 V 0 M 753 0 V 0 M 754 0 V 0 M 755 0 V 0 M 756 0 V 0 M 757 0 V 0 M 758 0 V 0 M 759 0 V 0 M 760 0 V 0 M 761 0 V 0 M 762 0 V 0 M 763 0 V 0 M 764 0 V 0 M 765 0 V 0 M 766 0 V 0 M 767 0 V 0 M 768 0 V 0 M 769 0 V 0 M 770 0 V 0 M 771 0 V 0 M 772 0 V 0 M 773 0 V 0 M 774 0 V 0 M 775 0 V 0 M 776 0 V 0 M 777 0 V 0 M 778 0 V 0 M 779 0 V 0 M 780 0 V 0 M 781 0 V 0 M 782 0 V 0 M 783 0 V 0 M 784 0 V 0 M 785 0 V 0 M 786 0 V 0 M 787 0 V 0 M 788 0 V 0 M 789 0 V 0 M 790 0 V 0 M 791 0 V 0 M 792 0 V 0 M 793 0 V 0 M 794 0 V 0 M 795 0 V 0 M 796 0 V 0 M 797 0 V 0 M 798 0 V 0 M 799 0 V 0 M 800 0 V 0 M 801 0 V 0 M 802 0 V 0 M 803 0 V 0 M 804 0 V 0 M 805 0 V 0 M 806 0 V 0 M 807 0 V 0 M 808 0 V 0 M 809 0 V 0 M 810 0 V 0 M 811 0 V 0 M 812 0 V 0 M 813 0 V 0 M 814 0 V 0 M 815 0 V 0 M 816 0 V 0 M 817 0 V 0 M 818 0 V 0 M 819 0 V 0 M 820 0 V 0 M 821 0 V 0 M 822 0 V 0 M 823 0 V 0 M 824 0 V 0 M 825 0 V 0 M 826 0 V 0 M 827 0 V 0 M 828 0 V 0 M 829 0 V 0 M 830 0 V 0 M 831 0 V 0 M 832 0 V 0 M 833 0 V 0 M 834 0 V 0 M 835 0 V 0 M 836 0 V 0 M 837 0 V 0 M 838 0 V 0 M 839 0 V 0 M 840 0 V 0 M 841 0 V 0 M 842 0 V 0 M 843 0 V 0 M 844 0 V 0 M 845 0 V 0 M 846 0 V 0 M 847 0 V 0 M 848 0 V 0 M 849 0 V 0 M 850 0 V 0 M 851 0 V 0 M 852 0 V 0 M 853 0 V 0 M 854 0 V 0 M 855 0 V 0 M 856 0 V 0 M 857 0 V 0 M 858 0 V 0 M 859 0 V 0 M 860 0 V 0 M 861 0 V 0 M 862 0 V 0 M 863 0 V 0 M 864 0 V 0 M 865 0 V 0 M 866 0 V 0 M 867 0 V 0 M 868 0 V 0 M 869 0 V 0 M 870 0 V 0 M 871 0 V 0 M 872 0 V 0 M 873 0 V 0 M 874 0 V 0 M 875 0 V 0 M 876 0 V 0 M 877 0 V 0 M 878 0 V 0 M 879 0 V 0 M 880 0 V 0 M 881 0 V 0 M 882 0 V 0 M 883 0 V 0 M 884 0 V 0 M 885 0 V 0 M 886 0 V 0 M 887 0 V 0 M 888 0 V 0 M 889 0 V 0 M 890 0 V 0 M 891 0 V 0 M 892 0 V 0 M 893 0 V 0 M 894 0 V 0 M 895 0 V 0 M 896 0 V 0 M 897 0 V 0 M 898 0 V 0 M 899 0 V 0 M 900 0 V 0 M 901 0 V 0 M 902 0 V 0 M 903 0 V 0 M 904 0 V 0 M 905 0 V 0 M 906 0 V 0 M 907 0 V 0 M 908 0 V 0 M 909 0 V 0 M 910 0 V 0 M 911 0 V 0 M 912 0 V 0 M 913 0 V 0 M 914 0 V 0 M 915 0 V 0 M 916 0 V 0 M 917 0 V 0 M 918 0 V 0 M 919 0 V 0 M 920 0 V 0 M 921 0 V 0 M 922 0 V 0 M 923 0 V 0 M 924 0 V 0 M 925 0 V 0 M 926 0 V 0 M 927 0 V 0 M 928 0 V 0 M 929 0 V 0 M 930 0 V 0 M 931 0 V 0 M 932 0 V 0 M 933 0 V 0 M 934 0 V 0 M 935 0 V 0 M 936 0 V 0 M 937 0 V 0 M 938 0 V 0 M 939 0 V 0 M 940 0 V 0 M 941 0 V 0 M 942 0 V 0 M 943 0 V 0 M 944 0 V 0 M 945 0 V 0 M 946 0 V 0 M 947 0 V 0 M 948 0 V 0 M 949 0 V 0 M 950 0 V 0 M 951 0 V 0 M 952 0 V 0 M 953 0 V 0 M 954 0 V 0 M 955 0 V 0 M 956 0 V 0 M 957 0 V 0 M 958 0 V 0 M 959 0 V 0 M 960 0 V 0 M 961 0 V 0 M 962 0 V 0 M 963 0 V 0 M 964 0 V 0 M 965 0 V 0 M 966 0 V 0 M 967 0 V 0 M 968 0 V 0 M 969 0 V 0 M 970 0 V 0 M 971 0 V 0 M 972 0 V 0 M 973 0 V 0 M 974 0 V 0 M 975 0 V 0 M 976 0 V 0 M 977 0 V 0 M 978 0 V 0 M 979 0 V 0 M 980 0 V 0 M 981 0 V 0 M 982 0 V 0 M 983 0 V 0 M 984 0 V 0 M 985 0 V 0 M 986 0 V 0 M 987 0 V 0 M 988 0 V 0 M 989 0 V 0 M 990 0 V 0 M 991 0 V 0 M 992 0 V 0 M 993 0 V 0 M 994 0 V 0 M 995 0 V 0 M 996 0 V 0 M 997 0 V 0 M 998 0 V 0 M 999 0 V 0 M 1000 0 V 0 M 1001 0 V 0 M 1002 0 V 0 M 1003 0 V 0 M 1004 0 V 0 M 1005 0 V 0 M 1006 0 V 0 M 1007 0 V 0 M 1008 0 V 0 M 1009 0 V 0 M 1010 0 V 0 M 1011 0 V 0 M 1012 0 V 0 M 1013 0 V 0 M 1014 0 V 0 M 1015 0 V 0 M 1016 0 V 0 M 1017 0 V 0 M 1018 0 V 0 M 1019 0 V 0 M 1020 0 V 0 M 1021 0 V 0 M 1022 0 V 0 M 1023 0 V 0 M 1024 0 V 0 M 1025 0 V 0 M 1026 0 V 0 M 1027 0 V 0 M 1028 0 V 0 M 1029 0 V 0 M 1030 0 V 0 M 1031 0 V 0 M 1032 0 V 0 M 1033 0 V 0 M 1034 0 V 0 M 1035 0 V 0 M 1036 0 V 0 M 1037 0 V 0 M 1038 0 V 0 M 1039 0 V 0 M 1040 0 V 0 M 1041 0 V 0 M 1042 0 V 0 M 1043 0 V 0 M 1044 0 V 0 M 1045 0 V 0 M 1046 0 V 0 M 1047 0 V 0 M 1048 0 V 0 M 1049 0 V 0 M 1050 0 V 0 M 1051 0 V 0 M 1052 0 V 0 M 1053 0 V 0 M 1054 0 V 0 M 1055 0 V 0 M 1056 0 V 0 M 1057 0 V 0 M 1058 0 V 0 M 1059 0 V 0 M 1060 0 V 0 M 1061 0 V 0 M 1062 0 V 0 M 1063 0 V 0 M 1064 0 V 0 M 1065 0 V 0 M 1066 0 V 0 M 1067 0 V 0 M 1068 0 V 0 M 1069 0 V 0 M 1070 0 V 0 M 1071 0 V 0 M 1072 0 V 0 M 1073 0 V 0 M 1074 0 V 0 M 1075 0 V 0 M 1076 0 V 0 M 1077 0 V 0 M 1078 0 V 0 M 1079 0 V 0 M 1080 0 V 0 M 1081 0 V 0 M 1082 0 V 0 M 1083 0 V 0 M 1084 0 V 0 M 1085 0 V 0 M 1086 0 V 0 M 1087 0 V 0 M 1088 0 V 0 M 1089 0 V 0 M 1090 0 V 0 M 1091 0 V 0 M 1092 0 V 0 M 1093 0 V 0 M 1094 0 V 0 M 1095 0 V 0 M 1096 0 V 0 M 1097 0 V 0 M 1098 0 V 0 M 1099 0 V 0 M 1100 0 V 0 M 1101 0 V 0 M 1102 0 V 0 M 1103 0 V 0 M 1104 0 V 0 M 1105 0 V 0 M 1106 0 V 0 M 1107 0 V 0 M 1108 0 V 0 M 1109 0 V 0 M 1110 0 V 0 M 1111 0 V 0 M 1112 0 V 0 M 1113 0 V 0 M 1114 0 V 0 M 1115 0 V 0 M 1116 0 V 0 M 1117 0 V 0 M 1118 0 V 0 M 1119 0 V 0 M 1120 0 V 0 M 1121 0 V 0 M 1122 0 V 0 M 1123 0 V 0 M 1124 0 V 0 M 1125 0 V 0 M 1126 0 V 0 M 1127 0 V 0 M 1128 0 V 0 M 1129 0 V 0 M 1130 0 V 0 M 1131 0 V 0 M 1132 0 V 0 M 1133 0 V 0 M 1134 0 V 0 M 1135 0 V 0 M 1136 0 V 0 M 1137 0 V 0 M 1138 0 V 0 M 1139 0 V 0 M 1140 0 V 0 M 1141 0 V 0 M 1142 0 V 0 M 1143 0 V 0 M 1144 0 V 0 M 1145 0 V 0 M 1146 0 V 0 M 1147 0 V 0 M 1148 0 V 0 M 1149 0 V 0 M 1150 0 V 0 M 1151 0 V 0 M 1152 0 V 0 M 1153 0 V 0 M 1154 0 V 0 M 1155 0 V 0 M 1156 0 V 0 M 1157 0 V 0 M 1158 0 V 0 M 1159 0 V 0 M 1160 0 V 0 M 1161 0 V 0 M 1162 0 V 0 M 1163 0 V 0 M 1164 0 V 0 M 1165 0 V 0 M 1166 0 V 0 M 1167 0 V 0 M 1168 0 V 0 M 1169 0 V 0 M 1170 0 V 0 M 1171 0 V 0 M 1172 0 V 0 M 1173 0 V 0 M 1174 0 V 0 M 1175 0 V 0 M 1176 0 V 0 M 1177 0 V 0 M 1178 0 V 0 M 1179 0 V 0 M 1180 0 V 0 M 1181 0 V 0 M 1182 0 V 0 M 1183 0 V 0 M 1184 0 V 0 M 1185 0 V 0 M 1186 0 V 0 M 1187 0 V 0 M 1188 0 V 0 M 1189 0 V 0 M 1190 0 V 0 M 1191 0 V 0 M 1192 0 V 0 M 1193 0 V 0 M 1194 0 V 0 M 1195 0 V 0 M 1196 0 V 0 M 1197 0 V 0 M 1198 0 V 0 M 1199 0 V 0 M 1200 0 V 0 M 1201 0 V 0 M 1202 0 V 0 M 1203 0 V 0 M 1204 0 V 0 M 1205 0 V 0 M 1206 0 V 0 M 1207 0 V 0 M 1208 0 V 0 M 1209 0 V 0 M 1210 0 V 0 M 1211 0 V 0 M 1212 0 V 0 M 1213 0 V 0 M 1214 0 V 0 M 1215 0 V 0 M 1216 0 V 0 M 1217 0 V 0 M 1218 0 V 0 M 1219 0 V 0 M 1220 0 V 0 M 1221 0 V 0 M 1222 0 V 0 M 1223 0 V 0 M 1224 0 V 0 M 1225 0 V 0 M 1226 0 V 0 M 1227 0 V 0 M 1228 0 V 0 M 1229 0 V 0 M 1230 0 V 0 M 1231 0 V 0 M 1232 0 V 0 M 1233 0 V 0 M 1234 0 V 0 M 1235 0 V 0 M 1236 0 V 0 M 1237 0 V 0 M 1238 0 V 0 M 1239 0 V 0 M 1240 0 V 0 M 1241 0 V 0 M 1242 0 V 0 M 1243 0 V 0 M 1244 0 V 0 M 1245 0 V 0 M 1246 0 V 0 M 1247 0 V 0 M 1248 0 V 0 M 1249 0 V 0 M 1250 0 V 0 M 1251 0 V 0 M 1252 0 V 0 M 1253 0 V 0 M 1254 0 V 0 M 1255 0 V 0 M 1256 0 V 0 M 1257 0 V 0 M 1258 0 V 0 M 1259 0 V 0 M 1260 0 V 0 M 1261 0 V 0 M 1262 0 V 0 M 1263 0 V 0 M 1264 0 V 0 M 1265 0 V 0 M 1266 0 V 0 M 1267 0 V 0 M 1268 0 V 0 M 1269 0 V 0 M 1270 0 V 0 M 1271 0 V 0 M 1272 0 V 0 M 1273 0 V 0 M 1274 0 V 0 M 1275 0 V 0 M 1276 0 V 0 M 1277 0 V 0 M 1278 0 V 0 M 1279 0 V 0 M 1280 0 V 0 M 1281 0 V 0 M 1282 0 V 0 M 1283 0 V 0 M 1284 0 V 0 M 1285 0 V 0 M 1286 0 V 0 M 1287 0 V 0 M 1288 0 V 0 M 1289 0 V 0 M 1290 0 V 0 M 1291 0 V 0 M 1292 0 V 0 M 1293 0 V 0 M 1294 0 V 0 M 1295 0 V 0 M 1296 0 V 0 M 1297 0 V 0 M 1298 0 V 0 M 1299 0 V 0 M 1300 0 V 0 M 1301 0 V 0 M 1302 0 V 0 M 1303 0 V 0 M 1304 0 V 0 M 1305 0 V 0 M 1306 0 V 0 M 1307 0 V 0 M 1308 0 V 0 M 1309 0 V 0 M 1310 0 V 0 M 1311 0 V 0 M 1312 0 V 0 M 1313 0 V 0 M 1314 0 V 0 M 1315 0 V 0 M 1316 0 V 0 M 1317 0 V 0 M 1318 0 V 0 M 1319 0 V 0 M 1320 0 V 0 M 1321 0 V 0 M 1322 0 V 0 M 1323 0 V 0 M 1324 0 V 0 M 1325 0 V 0 M 1326 0 V 0 M 1327 0 V 0 M 1328 0 V 0 M 1329 0 V 0 M 1330 0 V 0 M 1331 0 V 0 M 1332 0 V 0 M 1333 0 V 0 M 1334 0 V 0 M 1335 0 V 0 M 1336 0 V 0 M 1337 0 V 0 M 1338 0 V 0 M 1339 0 V 0 M 1340 0 V 0 M 1341 0 V 0 M 1342 0 V 0 M 1343 0 V 0 M 1344 0 V 0 M 1345 0 V 0 M 1346 0 V 0 M 1347 0 V 0 M 1348 0 V 0 M 1349 0 V 0 M 1350 0 V 0 M 1351 0 V 0 M 1352 0 V 0 M 1353 0 V 0 M 1354 0 V 0 M 1355 0 V 0 M 1356 0 V 0 M 1357 0 V 0 M 1358 0 V 0 M 1359 0 V 0 M 1360 0 V 0 M 1361 0 V 0 M 1362 0 V 0 M 1363 0 V 0 M 1364 0 V 0 M 1365 0 V 0 M 1366 0 V 0 M 1367 0 V 0 M 1368 0 V 0 M 1369 0 V 0 M 1370 0 V 0 M 1371 0 V 0 M 1372 0 V 0 M 1373 0 V 0 M 1374 0 V 0 M 1375 0 V 0 M 1376 0 V 0 M 1377 0 V 0 M 1378 0 V 0 M 1379 0 V 0 M 1380 0 V 0 M 1381 0 V 0 M 1382 0 V 0 M 1383 0 V 0 M 1384 0 V 0 M 1385 0 V 0 M 1386 0 V 0 M 1387 0 V 0 M 1388 0 V 0 M 1389 0 V 0 M 1390 0 V 0 M 1391 0 V 0 M 1392 0 V 0 M 1393 0 V 0 M 1394 0 V 0 M 1395 0 V 0 M 1396 0 V 0 M 1397 0 V 0 M 1398 0 V 0 M 1399 0 V 0 M 1400 0 V 0 M 1401 0 V 1 M 1402 -1 V 1 M 1403 -1 V 1 M 1404 -1 V 2 M 1405 -2 V 4 M 1406 -87 V 49 M 1407 -75 V 107 M 1408 -68 V 50 M 1409 -49 V 62 M 1410 -75 V 82 M 1411 -59 V 60 M 1412 -41 V 63 M 1413 -84 V 80 M 1414 -68 V 75 M 1415 -68 V 56 M 1416 -76 V 50 M 1417 -101 V 98 M 1418 -82 V 60 M 1419 -76 V 116 M 1420 -42 V 86 M 1421 -99 V 126 M 1422 -132 V 108 M 1423 -63 V 46 M 1424 -27 V 46 M 1425 -44 V 38 M 1426 -62 V 68 M 1427 -61 V 63 M 1428 -49 V 54 M 1429 -69 V 87 M 1430 -95 V 75 M 1431 -45 V 42 M 1432 -28 V 34 M 1433 -53 V 50 M 1434 -46 V 36 M 1435 -28 V 42 M 1436 -40 V 40 M 1437 -36 V 47 M 1438 -36 V 48 M 1439 -45 V 62 M 1440 -39 V 39 M 1441 -53 V 34 M 1442 -57 V 49 M 1443 -33 V 53 M 1444 -36 V 41 M 1445 -48 V 35 M 1446 -37 V 58 M 1447 -92 V 92 M 1448 -88 V 106 M 1449 -106 V 104 M 1450 -103 V 89 M 1451 -111 V 84 M 1452 -108 V 93 M 1453 -102 V 93 M 1454 -93 V 87 M 1455 -114 V 78 M 1456 -71 V 97 M 1457 -91 V 63 M 1458 -89 V 121 M 1459 -121 V 67 M 1460 -92 V 99 M 1461 -103 V 81 M 1462 -41 V 74 M 1463 -58 V 77 M 1464 -54 V 46 M 1465 -32 V 37 M 1466 -51 V 42 M 1467 -68 V 54 M 1468 -88 V 87 M 1469 -154 V 112 M 1470 -746 V 332 M 1471 -1496 V 974 M 1472 -2534 V 2544 M 1473 -1707 V 457 M 1474 -1039 V 700 M 1475 -866 V 614 M 1476 -1127 V 1074 M 1477 -798 V 1454 M 1478 -58 V 528 M 1479 -387 V 30 M 1480 -554 V 503 M 1481 -474 V 578 M 1482 -771 V 734 M 1483 -3871 V 4020 M 1484 -2633 V 2925 M 1485 -6118 V 5199 M 1486 -3462 V 3296 M 1487 -1687 V 1534 M 1488 -2014 V 1423 M 1489 -4823 V 2879 M 1490 -5219 V 4113 M 1491 -4795 V 3729 M 1492 -5741 V 4420 M 1493 -4179 V 3141 M 1494 -3538 V 4099 M 1495 -5554 V 4144 M 1496 -6567 V 4416 M 1497 -5564 V 5433 M 1498 -5581 V 3284 M 1499 -4493 V 3233 M 1500 -4601 V 4318 M 1501 -3711 V 5129 M 1502 -2930 V 3492 M 1503 -1673 V 3622 M 1504 -2374 V 3445 M 1505 -2587 V 3020 M 1506 -6705 V 3147 M 1507 -7742 V 6246 M 1508 -9679 V 7315 M 1509 -7405 V 7278 M 1510 -8897 V 7060 M 1511 -5738 V 6994 M 1512 -3370 V 5290 M 1513 -3756 V 2641 M 1514 -3110 V 4650 M 1515 -4561 V 3450 M 1516 -3780 V 2310 M 1517 -3053 V 1084 M 1518 -1311 V 2288 M 1519 -1283 V 2293 M 1520 -1413 V 1321 M 1521 -1690 V 1086 M 1522 -729 V 1313 M 1523 -1317 V 1595 M 1524 -1001 V 1270 M 1525 -947 V 1362 M 1526 -601 V 1248 M 1527 -794 V 797 M 1528 -708 V 447 M 1529 -510 V 383 M 1530 -319 V 206 M 1531 -205 V 298 M 1532 -252 V 331 M 1533 -470 V 494 M 1534 -1177 V 549 M 1535 -320 V 496 M 1536 -294 V 416 M 1537 -526 V 366 M 1538 -2674 V 1011 M 1539 -6807 V 3273 M 1540 -9938 V 6260 M 1541 -10862 V 8986 M 1542 -9352 V 10072 M 1543 -8592 V 8537 M 1544 -6816 V 7912 M 1545 -4200 V 6616 M 1546 -2737 V 2703 M 1547 -1533 V 2267 M 1548 -1933 V 2632 M 1549 -2367 V 2255 M 1550 -1844 V 1389 M 1551 -962 V 1071 M 1552 -888 V 863 M 1553 -676 V 808 M 1554 -636 V 824 M 1555 -743 V 842 M 1556 -957 V 822 M 1557 -1118 V 1130 M 1558 -1452 V 1168 M 1559 -1403 V 1358 M 1560 -1103 V 1102 M 1561 -1048 V 1092 M 1562 -1199 V 1371 M 1563 -834 V 846 M 1564 -1142 V 978 M 1565 -896 V 805 M 1566 -766 V 551 M 1567 -296 V 361 M 1568 -241 V 282 M 1569 -232 V 288 M 1570 -180 V 140 M 1571 -154 V 147 M 1572 -159 V 187 M 1573 -132 V 134 M 1574 -225 V 293 M 1575 -454 V 513 M 1576 -852 V 1645 M 1577 -3194 V 3331 M 1578 -5219 V 5194 M 1579 -9109 V 7372 M 1580 -10084 V 8319 M 1581 -10878 V 8871 M 1582 -10631 V 8984 M 1583 -9709 V 8768 M 1584 -9244 V 8198 M 1585 -8443 V 8779 M 1586 -8807 V 9348 M 1587 -8932 V 9702 M 1588 -8922 V 9229 M 1589 -8816 V 8485 M 1590 -8581 V 7732 M 1591 -8561 V 7893 M 1592 -6656 V 7748 M 1593 -4840 V 6841 M 1594 -3606 V 6194 M 1595 -3562 V 3083 M 1596 -1542 V 1596 M 1597 -2405 V 1432 M 1598 -3138 V 2595 M 1599 -3000 V 3561 M 1600 -2966 V 1699 M 1601 -1251 V 1498 M 1602 -644 V 1536 M 1603 -1620 V 1685 M 1604 -1708 V 1851 M 1605 -359 V 835 M 1606 -342 V 129 M 1607 -799 V 897 M 1608 -220 V 688 M 1609 -298 V 288 M 1610 -337 V 252 M 1611 -282 V 192 M 1612 -112 V 112 M 1613 -196 V 260 M 1614 -307 V 220 M 1615 -191 V 246 M 1616 -198 V 323 M 1617 -1503 V 5474 M 1618 -4768 V 5456 M 1619 -3203 V 3094 M 1620 -5172 V 3777 M 1621 -6914 V 4287 M 1622 -8206 V 6135 M 1623 -7837 V 6784 M 1624 -6915 V 8528 M 1625 -7286 V 7829 M 1626 -7565 V 8401 M 1627 -7215 V 9161 M 1628 -8000 V 9599 M 1629 -7772 V 8248 M 1630 -7707 V 6947 M 1631 -6498 V 6402 M 1632 -6859 V 5366 M 1633 -6432 V 5563 M 1634 -7781 V 5270 M 1635 -8323 V 6318 M 1636 -8227 V 5556 M 1637 -6536 V 5670 M 1638 -6745 V 4893 M 1639 -5920 V 5265 M 1640 -6915 V 4987 M 1641 -5984 V 5580 M 1642 -6062 V 5062 M 1643 -5044 V 5516 M 1644 -3981 V 5313 M 1645 -4032 V 4803 M 1646 -5381 V 6495 M 1647 -5084 V 4842 M 1648 -4659 V 4597 M 1649 -4383 V 3801 M 1650 -4919 V 3946 M 1651 -2945 V 3454 M 1652 -3543 V 2583 M 1653 -1209 V 859 M 1654 -1479 V 2292 M 1655 -2886 V 2802 M 1656 -1799 V 1425 M 1657 -1278 V 1420 M 1658 -1596 V 3179 M 1659 -2517 V 1245 M 1660 -1628 V 3945 M 1661 -1758 V 1764 M 1662 -1706 V 3325 M 1663 -1423 V 2421 M 1664 -422 V 1167 M 1665 -1564 V 2065 M 1666 -1572 V 1263 M 1667 -1903 V 2851 M 1668 -1427 V 1695 M 1669 -768 V 898 M 1670 -510 V 260 M 1671 -289 V 242 M 1672 -199 V 290 M 1673 -165 V 198 M 1674 -185 V 169 M 1675 -131 V 152 M 1676 -94 V 105 M 1677 -212 V 329 M 1678 -63 V 75 M 1679 -85 V 74 M 1680 -80 V 49 M 1681 -246 V 211 M 1682 -190 V 190 M 1683 -177 V 134 M 1684 -254 V 167 M 1685 -211 V 203 M 1686 -307 V 318 M 1687 -260 V 278 M 1688 -244 V 324 M 1689 -513 V 420 M 1690 -482 V 467 M 1691 -401 V 568 M 1692 -503 V 386 M 1693 -742 V 506 M 1694 -693 V 460 M 1695 -316 V 361 M 1696 -302 V 335 M 1697 -265 V 207 M 1698 -348 V 354 M 1699 -311 V 270 M 1700 -261 V 170 M 1701 -114 V 141 M 1702 -108 V 109 M 1703 -106 V 70 M 1704 -68 V 50 M 1705 -46 V 61 M 1706 -68 V 56 M 1707 -33 V 36 M 1708 -67 V 47 M 1709 -38 V 36 M 1710 -38 V 66 M 1711 -72 V 47 M 1712 -35 V 56 M 1713 -54 V 61 M 1714 -57 V 35 M 1715 -35 V 50 M 1716 -50 V 46 M 1717 -52 V 37 M 1718 -36 V 21 M 1719 -27 V 31 M 1720 -50 V 30 M 1721 -44 V 46 M 1722 -30 V 35 M 1723 -41 V 57 M 1724 -21 V 42 M 1725 -47 V 50 M 1726 -54 V 52 M 1727 -43 V 43 M 1728 -35 V 38 M 1729 -48 V 37 M 1730 -39 V 26 M 1731 -37 V 48 M 1732 -25 V 32 M 1733 -43 V 33 M 1734 -51 V 38 M 1735 -53 V 59 M 1736 -95 V 117 M 1737 -99 V 159 M 1738 -144 V 170 M 1739 -124 V 145 M 1740 -36 V 71 M 1741 -31 V 37 M 1742 -29 V 40 M 1743 -38 V 47 M 1744 -40 V 42 M 1745 -646 V 647 M 1746 -157 V 210 M 1747 -141 V 150 M 1748 -113 V 106 M 1749 -106 V 80 M 1750 -73 V 57 M 1751 -45 V 27 M 1752 -69 V 72 M 1753 -61 V 73 M 1754 -43 V 49 M 1755 -68 V 60 M 1756 -39 V 36 M 1757 -40 V 55 M 1758 -44 V 56 M 1759 -27 V 22 M 1760 -39 V 27 M 1761 -55 V 35 M 1762 -44 V 57 M 1763 -46 V 41 M 1764 -51 V 51 M 1765 -49 V 57 M 1766 -39 V 59 M 1767 -44 V 44 M 1768 -28 V 31 M 1769 -35 V 32 M 1770 -48 V 41 M 1771 -82 V 89 M 1772 -81 V 63 M 1773 -53 V 73 M 1774 -43 V 54 M 1775 -32 V 28 M 1776 -51 V 38 M 1777 -42 V 70 M 1778 -71 V 61 M 1779 -61 V 75 M 1780 -68 V 61 M 1781 -48 V 66 M 1782 -45 V 47 M 1783 -12 V 29 M 1784 -3 V 2 M 1785 -4 V 2 M 1786 -4 V 3 M 1787 -4 V 3 M 1788 -3 V 2 M 1789 -5 V 3 M 1790 -3 V 2 M 1791 -4 V 3 M 1792 -3 V 2 M 1793 -4 V 3 M 1794 -4 V 3 M 1795 -4 V 3 M 1796 -4 V 2 M 1797 -4 V 3 M 1798 -3 V 3 M 1799 -4 V 3 M 1800 -3 V 2 M 1801 -3 V 3 M 1802 -4 V 3 M 1803 -4 V 3 M 1804 -4 V 4 M 1805 -3 V 2 M 1806 -4 V 3 M 1807 -3 V 3 M 1808 -3 V 2 M 1809 -3 V 2 M 1810 -4 V 3 M 1811 -5 V 4 M 1812 -3 V 2 M 1813 -4 V 3 M 1814 -4 V 4 M 1815 -4 V 3 M 1816 -3 V 3 M 1817 -4 V 3 M 1818 -3 V 2 M 1819 -4 V 3 M 1820 -4 V 3 M 1821 -3 V 2 M 1822 -3 V 3 M 1823 -4 V 2 M 1824 -3 V 2 M 1825 -3 V 2 M 1826 -3 V 3 M 1827 -4 V 3 M 1828 -4 V 3 M 1829 -4 V 3 M 1830 -4 V 3 M 1831 -5 V 4 M 1832 -4 V 2 M 1833 -3 V 2 M 1834 -3 V 2 M 1835 -4 V 3 M 1836 -3 V 2 M 1837 -3 V 2 M 1838 -3 V 2 M 1839 -3 V 2 M 1840 -3 V 3 M 1841 -4 V 2 M 1842 -4 V 3 M 1843 -5 V 2 M 1844 -3 V 2 M 1845 -3 V 2 M 1846 -4 V 3 M 1847 -4 V 2 M 1848 -3 V 3 M 1849 -4 V 3 M 1850 -3 V 2 M 1851 -4 V 3 M 1852 -3 V 2 M 1853 -4 V 3 M 1854 -5 V 3 M 1855 -4 V 3 M 1856 -3 V 3 M 1857 -3 V 2 M 1858 -4 V 2 M 1859 -3 V 3 M 1860 -3 V 3 M 1861 -3 V 2 M 1862 -3 V 2 M 1863 -4 V 3 M 1864 -4 V 2 M 1865 -3 V 3 M 1866 -4 V 2 M 1867 -3 V 2 M 1868 -4 V 3 M 1869 -4 V 3 M 1870 -4 V 3 M 1871 -4 V 3 M 1872 -3 V 2 M 1873 -4 V 3 M 1874 -3 V 2 M 1875 -5 V 3 M 1876 -3 V 3 M 1877 -4 V 3 M 1878 -4 V 4 M 1879 -4 V 3 M 1880 -4 V 2 M 1881 -3 V 3 M 1882 -3 V 3 M 1883 -3 V 2 M 1884 -4 V 3 M 1885 -4 V 2 M 1886 -4 V 2 M 1887 -4 V 3 M 1888 -5 V 3 M 1889 -3 V 3 M 1890 -4 V 2 M 1891 -3 V 2 M 1892 -4 V 3 M 1893 -4 V 4 M 1894 -3 V 3 M 1895 -3 V 2 M 1896 -3 V 3 M 1897 -4 V 3 M 1898 -3 V 3 M 1899 -5 V 3 M 1900 -3 V 2 M 1901 -4 V 3 M 1902 -3 V 2 M 1903 -4 V 3 M 1904 -4 V 3 M 1905 -5 V 3 M 1906 -3 V 2 M 1907 -4 V 3 M 1908 -3 V 3 M 1909 -3 V 2 M 1910 -4 V 3 M 1911 -3 V 2 M 1912 -3 V 2 M 1913 -3 V 2 M 1914 -3 V 2 M 1915 -4 V 4 M 1916 -3 V 2 M 1917 -4 V 2 M 1918 -3 V 2 M 1919 -4 V 3 M 1920 -4 V 2 M 1921 -3 V 2 M 1922 -3 V 3 M 1923 -4 V 3 M 1924 -4 V 2 M 1925 -4 V 3 M 1926 -5 V 4 M 1927 -4 V 3 M 1928 -4 V 2 M 1929 -4 V 3 M 1930 -4 V 3 M 1931 -3 V 3 M 1932 -4 V 3 M 1933 -4 V 3 M 1934 -3 V 3 M 1935 -4 V 3 M 1936 -4 V 2 M 1937 -4 V 3 M 1938 -5 V 4 M 1939 -4 V 3 M 1940 -3 V 2 M 1941 -3 V 2 M 1942 -4 V 2 M 1943 -4 V 3 M 1944 -4 V 3 M 1945 -3 V 3 M 1946 -3 V 2 M 1947 -3 V 2 M 1948 -3 V 2 M 1949 -4 V 2 M 1950 -3 V 2 M 1951 -4 V 3 M 1952 -4 V 3 M 1953 -3 V 3 M 1954 -3 V 3 M 1955 -3 V 3 M 1956 -3 V 2 M 1957 -4 V 3 M 1958 -4 V 2 M 1959 -3 V 2 M 1960 -4 V 3 M 1961 -4 V 3 M 1962 -4 V 2 M 1963 -4 V 2 M 1964 -4 V 3 M 1965 -4 V 3 M 1966 -3 V 2 M 1967 -4 V 3 M 1968 -4 V 3 M 1969 -4 V 3 M 1970 -3 V 2 M 1971 -4 V 3 M 1972 -4 V 3 M 1973 -4 V 3 M 1974 -4 V 4 M 1975 -3 V 3 M 1976 -3 V 2 M 1977 -4 V 2 M 1978 -4 V 3 M 1979 -4 V 3 M 1980 -5 V 3 M 1981 -4 V 3 M 1982 -4 V 3 M 1983 -3 V 2 M 1984 -4 V 3 M 1985 -4 V 4 M 1986 -4 V 4 M 1987 -4 V 3 M 1988 -3 V 3 M 1989 -4 V 2 M 1990 -3 V 2 M 1991 -5 V 4 M 1992 -4 V 2 M 1993 -4 V 3 M 1994 -3 V 2 M 1995 -3 V 2 M 1996 -5 V 3 M 1997 -5 V 3 M 1998 -3 V 2 M 1999 -4 V 3 M 2000 -4 V 3 M 2001 -3 V 2 M 2002 -5 V 5 M 2003 -3 V 3 M 2004 -3 V 2 M 2005 -5 V 3 M 2006 -3 V 3 M 2007 -4 V 3 M 2008 -3 V 3 M 2009 -3 V 2 M 2010 -3 V 2 M 2011 -3 V 2 M 2012 -3 V 2 M 2013 -3 V 2 M 2014 -4 V 3 M 2015 -3 V 2 M 2016 -3 V 3 M 2017 -4 V 2 M 2018 -4 V 3 M 2019 -3 V 2 M 2020 -4 V 3 M 2021 -4 V 3 M 2022 -4 V 3 M 2023 -4 V 2 M 2024 -3 V 2 M 2025 -4 V 2 M 2026 -3 V 3 M 2027 -3 V 2 M 2028 -3 V 2 M 2029 -4 V 3 M 2030 -4 V 4 M 2031 -4 V 3 M 2032 -4 V 4 M 2033 -3 V 3 M 2034 -3 V 3 M 2035 -4 V 3 M 2036 -3 V 2 M 2037 -3 V 3 M 2038 -3 V 2 M 2039 -4 V 2 M 2040 -3 V 2 M 2041 -4 V 3 M 2042 -3 V 2 M 2043 -4 V 2 M 2044 -3 V 3 M 2045 -3 V 2 M 2046 -3 V 3 M 2047 -4 V 3 M 2048 -5 V 3 M 2049 -4 V 3 M 2050 -3 V 3 M 2051 -4 V 2 M 2052 -4 V 3 M 2053 -4 V 2 M 2054 -3 V 3 M 2055 -4 V 2 M 2056 -3 V 2 M 2057 -3 V 2 M 2058 -3 V 2 M 2059 -4 V 4 M 2060 -4 V 3 M 2061 -5 V 3 M 2062 -3 V 3 M 2063 -4 V 3 M 2064 -3 V 2 M 2065 -3 V 3 M 2066 -3 V 2 M 2067 -3 V 3 M 2068 -4 V 2 M 2069 -3 V 2 M 2070 -3 V 2 M 2071 -4 V 3 M 2072 -4 V 3 M 2073 -3 V 2 M 2074 -3 V 3 M 2075 -3 V 3 M 2076 -4 V 3 M 2077 -4 V 4 M 2078 -3 V 2 M 2079 -4 V 2 M 2080 -4 V 3 M 2081 -4 V 3 M 2082 -3 V 2 M 2083 -3 V 3 M 2084 -4 V 3 M 2085 -3 V 2 M 2086 -4 V 2 M 2087 -3 V 2 M 2088 -4 V 3 M 2089 -4 V 3 M 2090 -3 V 3 M 2091 -5 V 3 M 2092 -4 V 2 M 2093 -3 V 3 M 2094 -4 V 3 M 2095 -4 V 3 M 2096 -4 V 3 M 2097 -4 V 3 M 2098 -3 V 2 M 2099 -4 V 2 M 2100 -4 V 2 M 2101 -4 V 3 M 2102 -4 V 3 M 2103 -3 V 2 M 2104 -3 V 2 M 2105 -3 V 2 M 2106 -4 V 4 M 2107 -4 V 2 M 2108 -4 V 3 M 2109 -4 V 2 M 2110 -4 V 3 M 2111 -4 V 3 M 2112 -4 V 3 M 2113 -4 V 2 M 2114 -5 V 4 M 2115 -3 V 2 M 2116 -4 V 2 M 2117 -4 V 3 M 2118 -4 V 3 M 2119 -4 V 3 M 2120 -4 V 2 M 2121 -4 V 2 M 2122 -3 V 2 M 2123 -4 V 2 M 2124 -4 V 3 M 2125 -4 V 2 M 2126 -4 V 3 M 2127 -4 V 3 M 2128 -3 V 2 M 2129 -3 V 2 M 2130 -4 V 3 M 2131 -3 V 3 M 2132 -4 V 2 M 2133 -4 V 3 M 2134 -4 V 3 M 2135 -4 V 2 M 2136 -3 V 2 M 2137 -3 V 2 M 2138 -5 V 2 M 2139 -5 V 3 M 2140 -4 V 3 M 2141 -5 V 4 M 2142 -4 V 2 M 2143 -3 V 3 M 2144 -3 V 2 M 2145 -3 V 3 M 2146 -4 V 3 M 2147 -4 V 2 M 2148 -4 V 3 M 2149 -3 V 2 M 2150 -3 V 2 M 2151 -4 V 3 M 2152 -4 V 3 M 2153 -5 V 5 M 2154 -4 V 3 M 2155 -4 V 2 M 2156 -4 V 2 M 2157 -5 V 4 M 2158 -7 V 49 M 2159 -43 V 47 M 2160 -45 V 44 M 2161 -36 V 41 M 2162 -32 V 20 M 2163 -44 V 51 M 2164 -80 V 45 M 2165 -65 V 47 M 2166 -59 V 71 M 2167 -49 V 55 M 2168 -39 V 47 M 2169 -65 V 56 M 2170 -57 V 82 M 2171 -46 V 59 M 2172 -52 V 47 M 2173 -174 V 150 M 2174 -135 V 176 M 2175 -59 V 78 M 2176 -85 V 97 M 2177 -49 V 62 M 2178 -26 V 40 M 2179 -34 V 53 M 2180 -45 V 46 M 2181 -83 V 86 M 2182 -67 V 92 M 2183 -46 V 51 M 2184 -130 V 83 M 2185 -49 V 52 M 2186 -60 V 47 M 2187 -52 V 50 M 2188 -66 V 71 M 2189 -93 V 88 M 2190 -100 V 77 M 2191 -91 V 54 M 2192 -82 V 54 M 2193 -64 V 64 M 2194 -34 V 56 M 2195 -100 V 113 M 2196 -92 V 111 M 2197 -283 V 337 M 2198 -1451 V 1611 M 2199 -861 V 779 M 2200 -11628 V 14753 M 2201 -3991 V 4286 M 2202 -2170 V 2778 M 2203 -1235 V 1807 M 2204 -2142 V 1738 M 2205 -1944 V 1051 M 2206 -1176 V 982 M 2207 -906 V 982 M 2208 -1140 V 1025 M 2209 -888 V 1003 M 2210 -533 V 491 M 2211 -479 V 569 M 2212 -383 V 718 M 2213 -587 V 622 M 2214 -548 V 290 M 2215 -593 V 565 M 2216 -337 V 205 M 2217 -132 V 169 M 2218 -208 V 142 M 2219 -95 V 197 M 2220 -204 V 157 M 2221 -208 V 138 M 2222 -242 V 182 M 2223 -74 V 204 M 2224 -236 V 152 M 2225 -110 V 180 M 2226 -348 V 246 M 2227 -825 V 522 M 2228 -1436 V 950 M 2229 -1444 V 1121 M 2230 -2228 V 1133 M 2231 -2200 V 1800 M 2232 -2294 V 1619 M 2233 -2330 V 2702 M 2234 -4674 V 3015 M 2235 -3407 V 2733 M 2236 -4224 V 3766 M 2237 -5307 V 4573 M 2238 -3546 V 4359 M 2239 -4438 V 3753 M 2240 -5002 V 6096 M 2241 -2619 V 3139 M 2242 -2064 V 2997 M 2243 -2859 V 3235 M 2244 -1504 V 1374 M 2245 -2435 V 2063 M 2246 -1512 V 932 M 2247 -1557 V 1745 M 2248 -978 V 937 M 2249 -1070 V 974 M 2250 -1297 V 1080 M 2251 -1024 V 1372 M 2252 -653 V 856 M 2253 -3816 V 2874 M 2254 -4025 V 4062 M 2255 -2908 V 3708 M 2256 -25462 V 22864 M 2257 -13537 V 16717 M 2258 -6923 V 6729 M 2259 -5665 V 4621 M 2260 -4437 V 4057 M 2261 -3436 V 3993 M 2262 -5401 V 3633 M 2263 -4319 V 4326 M 2264 -5129 V 4847 M 2265 -6626 V 6143 M 2266 -7208 V 8843 M 2267 -8334 V 9119 M 2268 -9803 V 7440 M 2269 -9593 V 8396 M 2270 -12015 V 7911 M 2271 -12831 V 10003 M 2272 -12703 V 11120 M 2273 -10139 V 11064 M 2274 -13468 V 11956 M 2275 -9072 V 9942 M 2276 -8828 V 7533 M 2277 -6782 V 5900 M 2278 -5611 V 5162 M 2279 -4382 V 4279 M 2280 -5228 V 3530 M 2281 -5763 V 3610 M 2282 -5998 V 3776 M 2283 -3306 V 3474 M 2284 -4946 V 4265 M 2285 -4062 V 3400 M 2286 -3768 V 4103 M 2287 -4264 V 5423 M 2288 -3738 V 6368 M 2289 -4225 V 6990 M 2290 -4716 V 7385 M 2291 -3654 V 6327 M 2292 -3262 V 4782 M 2293 -4215 V 5093 M 2294 -4949 V 5537 M 2295 -4768 V 5845 M 2296 -5896 V 5401 M 2297 -6412 V 6067 M 2298 -6735 V 4709 M 2299 -8396 V 7080 M 2300 -6667 V 8042 M 2301 -6567 V 9227 M 2302 -6568 V 9048 M 2303 -6822 V 7178 M 2304 -4990 V 4705 M 2305 -3834 V 4731 M 2306 -5445 V 4799 M 2307 -6057 V 6064 M 2308 -5219 V 5677 M 2309 -3879 V 2686 M 2310 -2324 V 1982 M 2311 -1507 V 2288 M 2312 -2338 V 3229 M 2313 -4010 V 3417 M 2314 -3472 V 2574 M 2315 -1933 V 1892 M 2316 -1085 V 1088 M 2317 -2244 V 1441 M 2318 -1615 V 1745 M 2319 -1520 V 1180 M 2320 -1019 V 894 M 2321 -1045 V 789 M 2322 -785 V 586 M 2323 -878 V 1045 M 2324 -2858 V 2841 M 2325 -2308 V 3668 M 2326 -2747 V 3784 M 2327 -2263 V 2578 M 2328 -3038 V 2855 M 2329 -3577 V 2719 M 2330 -4344 V 3578 M 2331 -3214 V 4226 M 2332 -1769 V 2498 M 2333 -1265 V 1454 M 2334 -1535 V 1795 M 2335 -2369 V 2437 M 2336 -2032 V 2392 M 2337 -2120 V 2605 M 2338 -2300 V 2895 M 2339 -1802 V 2017 M 2340 -1347 V 2007 M 2341 -1272 V 1582 M 2342 -1195 V 969 M 2343 -919 V 1014 M 2344 -1354 V 787 M 2345 -1063 V 646 M 2346 -1375 V 996 M 2347 -1874 V 1103 M 2348 -1567 V 1095 M 2349 -1422 V 1145 M 2350 -1543 V 1785 M 2351 -777 V 1190 M 2352 -562 V 691 M 2353 -382 V 360 M 2354 -417 V 337 M 2355 -461 V 389 M 2356 -459 V 401 M 2357 -345 V 430 M 2358 -431 V 307 M 2359 -304 V 143 M 2360 -91 V 66 M 2361 -58 V 78 M 2362 -73 V 64 M 2363 -52 V 90 M 2364 -57 V 60 M 2365 -66 V 48 M 2366 -58 V 32 M 2367 -32 V 31 M 2368 -51 V 54 M 2369 -45 V 57 M 2370 -33 V 44 M 2371 -59 V 44 M 2372 -83 V 40 M 2373 -71 V 53 M 2374 -117 V 71 M 2375 -127 V 80 M 2376 -87 V 86 M 2377 -81 V 112 M 2378 -51 V 35 M 2379 -53 V 36 M 2380 -48 V 52 M 2381 -162 V 172 M 2382 -110 V 78 M 2383 -195 V 201 M 2384 -197 V 240 M 2385 -123 V 150 M 2386 -135 V 103 M 2387 -56 V 91 M 2388 -45 V 78 M 2389 -49 V 49 M 2390 -55 V 32 M 2391 -51 V 55 M 2392 -66 V 60 M 2393 -81 V 77 M 2394 -75 V 35 M 2395 -58 V 57 M 2396 -43 V 58 M 2397 -69 V 28 M 2398 -32 V 44 M 2399 -51 V 43 M 2400 -79 V 64 M 2401 -51 V 52 M 2402 -48 V 40 M 2403 -34 V 46 M 2404 -44 V 85 M 2405 -78 V 73 M 2406 -166 V 146 M 2407 -996 V 1089 M 2408 -535 V 747 M 2409 -887 V 1095 M 2410 -566 V 703 M 2411 -394 V 315 M 2412 -251 V 260 M 2413 -233 V 163 M 2414 -153 V 202 M 2415 -201 V 150 M 2416 -356 V 343 M 2417 -345 V 470 M 2418 -1273 V 1612 M 2419 -3743 V 4121 M 2420 -5759 V 5075 M 2421 -2892 V 7086 M 2422 -6139 V 7350 M 2423 -7560 V 7530 M 2424 -5829 V 5568 M 2425 -4690 V 6558 M 2426 -4891 V 6807 M 2427 -3506 V 6609 M 2428 -6916 V 6173 M 2429 -8276 V 6348 M 2430 -11828 V 7486 M 2431 -11851 V 7628 M 2432 -11763 V 8396 M 2433 -11855 V 8303 M 2434 -10959 V 9626 M 2435 -8424 V 8813 M 2436 -8657 V 6753 M 2437 -7210 V 3713 M 2438 -2924 V 4118 M 2439 -3690 V 4107 M 2440 -2350 V 2992 M 2441 -2866 V 3828 M 2442 -3446 V 3042 M 2443 -2451 V 2491 M 2444 -1399 V 2134 M 2445 -2104 V 1500 M 2446 -1767 V 2000 M 2447 -1114 V 1271 M 2448 -768 V 803 M 2449 -861 V 817 M 2450 -602 V 1093 M 2451 -748 V 758 M 2452 -683 V 589 M 2453 -863 V 1538 M 2454 -1817 V 1855 M 2455 -1793 V 1955 M 2456 -1580 V 2221 M 2457 -3664 V 2491 M 2458 -6855 V 4462 M 2459 -7357 V 7733 M 2460 -7203 V 7941 M 2461 -7078 V 9993 M 2462 -6718 V 9574 M 2463 -4702 V 6691 M 2464 -4332 V 3964 M 2465 -3517 V 5487 M 2466 -6593 V 6308 M 2467 -6584 V 8379 M 2468 -5065 V 4513 M 2469 -2479 V 8379 M 2470 -4420 V 5322 M 2471 -3873 V 5420 M 2472 -4580 V 2852 M 2473 -2964 V 5777 M 2474 -3721 V 5856 M 2475 -3864 V 4795 M 2476 -4461 V 5302 M 2477 -5039 V 5603 M 2478 -3286 V 4963 M 2479 -2976 V 2658 M 2480 -2428 V 3014 M 2481 -3028 V 2467 M 2482 -2689 V 2431 M 2483 -1874 V 1935 M 2484 -1979 V 857 M 2485 -598 V 774 M 2486 -626 V 839 M 2487 -1135 V 679 M 2488 -1787 V 1614 M 2489 -1195 V 3038 M 2490 -2316 V 3872 M 2491 -2968 V 3676 M 2492 -2950 V 5452 M 2493 -4704 V 5906 M 2494 -4696 V 2236 M 2495 -2941 V 5357 M 2496 -2208 V 3277 M 2497 -1561 V 154 M 2498 -1317 V 1529 M 2499 -1129 V 908 M 2500 -738 V 263 M 2501 -707 V 1086 M 2502 -926 V 937 M 2503 -908 V 1738 M 2504 -1324 V 1308 M 2505 -924 V 1022 M 2506 -2524 V 3075 M 2507 -3112 V 4453 M 2508 -3848 V 2026 M 2509 -1479 V 3791 M 2510 -5110 V 3969 M 2511 -4679 V 3095 M 2512 -2961 V 4159 M 2513 -3418 V 3517 M 2514 -2785 V 3065 M 2515 -1774 V 2951 M 2516 -2727 V 2905 M 2517 -2794 V 2299 M 2518 -2276 V 3086 M 2519 -3006 V 3356 M 2520 -2102 V 1369 M 2521 -1294 V 2191 M 2522 -1653 V 2578 M 2523 -1928 V 961 M 2524 -1519 V 1916 M 2525 -490 V 1450 M 2526 -1691 V 1488 M 2527 -1660 V 1790 M 2528 -1139 V 1758 M 2529 -1740 V 2031 M 2530 -1715 V 1230 M 2531 -1386 V 1447 M 2532 -388 V 644 M 2533 -643 V 476 M 2534 -1050 V 689 M 2535 -1120 V 1236 M 2536 -898 V 801 M 2537 -1111 V 990 M 2538 -990 V 1863 M 2539 -1203 V 629 M 2540 -639 V 456 M 2541 -1368 V 1910 M 2542 -1859 V 2424 M 2543 -1624 V 2138 M 2544 -3467 V 3206 M 2545 -2320 V 2273 M 2546 -2040 V 1768 M 2547 -1763 V 1276 M 2548 -2094 V 2338 M 2549 -950 V 883 M 2550 -549 V 629 M 2551 -514 V 596 M 2552 -287 V 365 M 2553 -110 V 132 M 2554 -163 V 132 M 2555 -67 V 35 M 2556 -54 V 36 M 2557 -28 V 23 M 2558 -65 V 53 M 2559 -49 V 61 M 2560 -40 V 42 M 2561 -41 V 59 M 2562 -63 V 54 M 2563 -62 V 45 M 2564 -74 V 44 M 2565 -66 V 70 M 2566 -832 V 757 M 2567 -531 V 493 M 2568 -700 V 665 M 2569 -4013 V 3725 M 2570 -4262 V 4508 M 2571 -3938 V 3459 M 2572 -3222 V 3029 M 2573 -1843 V 1907 M 2574 -2802 V 4418 M 2575 -3918 V 3539 M 2576 -3703 V 2028 M 2577 -5639 V 7571 M 2578 -5650 V 8449 M 2579 -4215 V 5332 M 2580 -2638 V 3439 M 2581 -4617 V 3629 M 2582 -3438 V 4446 M 2583 -3882 V 4620 M 2584 -7823 V 7007 M 2585 -5138 V 5696 M 2586 -4681 V 6384 M 2587 -6998 V 6739 M 2588 -4056 V 6569 M 2589 -5752 V 4762 M 2590 -3513 V 4168 M 2591 -3508 V 3787 M 2592 -3821 V 3451 M 2593 -2631 V 2737 M 2594 -2656 V 2513 M 2595 -2620 V 2247 M 2596 -2492 V 2223 M 2597 -1942 V 2313 M 2598 -1610 V 1565 M 2599 -2035 V 1777 M 2600 -1997 V 1873 M 2601 -2845 V 2208 M 2602 -3712 V 2923 M 2603 -5299 V 3635 M 2604 -6642 V 8089 M 2605 -9641 V 12852 M 2606 -13176 V 14424 M 2607 -13163 V 13848 M 2608 -11683 V 13073 M 2609 -10814 V 11997 M 2610 -9074 V 9532 M 2611 -7449 V 7406 M 2612 -5016 V 4708 M 2613 -3232 V 2611 M 2614 -3115 V 1821 M 2615 -3791 V 3437 M 2616 -3673 V 3479 M 2617 -3117 V 3233 M 2618 -2550 V 2307 M 2619 -2399 V 1756 M 2620 -3056 V 2314 M 2621 -1737 V 2775 M 2622 -1634 V 1831 M 2623 -2696 V 1592 M 2624 -3912 V 2355 M 2625 -4432 V 3428 M 2626 -5151 V 4060 M 2627 -6113 V 4426 M 2628 -6087 V 4828 M 2629 -5957 V 5001 M 2630 -6043 V 5787 M 2631 -6111 V 5526 M 2632 -5996 V 5029 M 2633 -6046 V 5116 M 2634 -5807 V 4590 M 2635 -5147 V 4404 M 2636 -4631 V 4687 M 2637 -5428 V 4272 M 2638 -5723 V 4396 M 2639 -6382 V 4787 M 2640 -7104 V 4606 M 2641 -7676 V 5314 M 2642 -8410 V 4992 M 2643 -9265 V 5651 M 2644 -9292 V 6135 M 2645 -8540 V 6286 M 2646 -8467 V 6319 M 2647 -8886 V 6313 M 2648 -8161 V 6373 M 2649 -7742 V 6494 M 2650 -7221 V 6565 M 2651 -6181 V 5983 M 2652 -6265 V 5993 M 2653 -6160 V 5957 M 2654 -6410 V 5425 M 2655 -6515 V 5070 M 2656 -6777 V 4816 M 2657 -6045 V 4510 M 2658 -5342 V 4950 M 2659 -4455 V 5134 M 2660 -4005 V 5356 M 2661 -3994 V 5482 M 2662 -4579 V 5026 M 2663 -4958 V 5144 M 2664 -4585 V 4374 M 2665 -5147 V 4744 M 2666 -6153 V 5803 M 2667 -6437 V 6814 M 2668 -6376 V 6608 M 2669 -6338 V 5807 M 2670 -6066 V 5046 M 2671 -6433 V 4058 M 2672 -5985 V 3316 M 2673 -5567 V 3981 M 2674 -5727 V 4032 M 2675 -4022 V 4267 M 2676 -3764 V 4183 M 2677 -4572 V 5213 M 2678 -5362 V 5873 M 2679 -6283 V 5334 M 2680 -6927 V 5217 M 2681 -6414 V 4812 M 2682 -5160 V 4393 M 2683 -4262 V 4151 M 2684 -3228 V 4011 M 2685 -1991 V 3419 M 2686 -2784 V 1809 M 2687 -4027 V 2631 M 2688 -4324 V 4009 M 2689 -4105 V 4299 M 2690 -3760 V 4145 M 2691 -3139 V 3948 M 2692 -2772 V 3333 M 2693 -3300 V 3379 M 2694 -3758 V 3528 M 2695 -3391 V 3331 M 2696 -3377 V 3044 M 2697 -3284 V 2911 M 2698 -2916 V 2523 M 2699 -2419 V 2512 M 2700 -2783 V 3070 M 2701 -2593 V 3001 M 2702 -2504 V 2973 M 2703 -3111 V 3630 M 2704 -3548 V 3654 M 2705 -4432 V 4614 M 2706 -4251 V 5446 M 2707 -4689 V 5732 M 2708 -4494 V 5434 M 2709 -4611 V 4913 M 2710 -4181 V 4218 M 2711 -4250 V 5290 M 2712 -4462 V 5227 M 2713 -4186 V 5026 M 2714 -5291 V 5021 M 2715 -3755 V 4838 M 2716 -3987 V 4639 M 2717 -3306 V 3389 M 2718 -2202 V 2122 M 2719 -1645 V 2079 M 2720 -778 V 1510 M 2721 -1846 V 2052 M 2722 -2585 V 2317 M 2723 -2828 V 1933 M 2724 -2980 V 2656 M 2725 -2558 V 2927 M 2726 -2497 V 2330 M 2727 -1716 V 1726 M 2728 -1691 V 1422 M 2729 -1199 V 2077 M 2730 -2064 V 2245 M 2731 -1472 V 1279 M 2732 -1525 V 1971 M 2733 -1566 V 1600 M 2734 -1940 V 2170 M 2735 -2191 V 2219 M 2736 -1274 V 2175 M 2737 -1993 V 1959 M 2738 -1995 V 1855 M 2739 -1658 V 2214 M 2740 -2088 V 2419 M 2741 -2167 V 2092 M 2742 -1551 V 2108 M 2743 -1561 V 2013 M 2744 -1357 V 1646 M 2745 -1228 V 1665 M 2746 -1344 V 2043 M 2747 -1691 V 2271 M 2748 -420 V 860 M 2749 -405 V 377 M 2750 -233 V 327 M 2751 -263 V 284 M 2752 -207 V 66 M 2753 -20 V 60 M 2754 -91 V 126 M 2755 -72 V 14 M 2756 -45 V 65 M 2757 -97 V 70 M 2758 -55 V 59 M 2759 -32 V 43 M 2760 -72 V 49 M 2761 -90 V 348 M 2762 -149 V 288 M 2763 -277 V 204 M 2764 -409 V 318 M 2765 -491 V 527 M 2766 -681 V 505 M 2767 -568 V 495 M 2768 -573 V 611 M 2769 -759 V 622 M 2770 -597 V 811 M 2771 -686 V 606 M 2772 -666 V 788 M 2773 -853 V 1039 M 2774 -953 V 682 M 2775 -1901 V 1383 M 2776 -1584 V 971 M 2777 -2290 V 2562 M 2778 -2219 V 1808 M 2779 -2276 V 4799 M 2780 -1851 V 4824 M 2781 -2954 V 1664 M 2782 -2505 V 2150 M 2783 -1825 V 1185 M 2784 -1065 V 1710 M 2785 -1090 V 1203 M 2786 -1060 V 1554 M 2787 -579 V 551 M 2788 -657 V 713 M 2789 -945 V 554 M 2790 -1111 V 1010 M 2791 -641 V 825 M 2792 -927 V 597 M 2793 -288 V 317 M 2794 -197 V 311 M 2795 -380 V 206 M 2796 -188 V 125 M 2797 -207 V 178 M 2798 -79 V 92 M 2799 -99 V 70 M 2800 -116 V 88 M 2801 -88 V 130 M 2802 -80 V 133 M 2803 -70 V 41 M 2804 -61 V 60 M 2805 -95 V 121 M 2806 -159 V 167 M 2807 -159 V 245 M 2808 -225 V 178 M 2809 -293 V 250 M 2810 -255 V 236 M 2811 -308 V 312 M 2812 -162 V 214 M 2813 -191 V 193 M 2814 -244 V 263 M 2815 -285 V 271 M 2816 -185 V 138 M 2817 -195 V 177 M 2818 -193 V 217 M 2819 -168 V 167 M 2820 -230 V 188 M 2821 -141 V 262 M 2822 -268 V 196 M 2823 -202 V 280 M 2824 -132 V 122 M 2825 -84 V 81 M 2826 -105 V 113 M 2827 -75 V 77 M 2828 -55 V 87 M 2829 -54 V 49 M 2830 -68 V 33 M 2831 -51 V 48 M 2832 -91 V 54 M 2833 -54 V 47 M 2834 -60 V 50 M 2835 -55 V 57 M 2836 -36 V 34 M 2837 -32 V 24 M 2838 -51 V 34 M 2839 -44 V 69 M 2840 -45 V 73 M 2841 -65 V 61 M 2842 -234 V 55 M 2843 -98 V 178 M 2844 -59 V 102 M 2845 -83 V 90 M 2846 -62 V 69 M 2847 -29 V 45 M 2848 -56 V 65 M 2849 -61 V 49 M 2850 -58 V 64 M 2851 -59 V 53 M 2852 -90 V 62 M 2853 -58 V 68 M 2854 -27 V 33 M 2855 -47 V 34 M 2856 -48 V 37 M 2857 -55 V 33 M 2858 -29 V 36 M 2859 -29 V 42 M 2860 -51 V 67 M 2861 -71 V 52 M 2862 -61 V 83 M 2863 -90 V 71 M 2864 -99 V 74 M 2865 -82 V 97 M 2866 -66 V 53 M 2867 -46 V 60 M 2868 -61 V 65 M 2869 -50 V 80 M 2870 -578 V 90 M 2871 -3788 V 1426 M 2872 -3509 V 5243 M 2873 -4039 V 7080 M 2874 -4892 V 5817 M 2875 -3152 V 5238 M 2876 -4474 V 3674 M 2877 -1392 V 1006 M 2878 -769 V 1155 M 2879 -1029 V 1403 M 2880 -1263 V 1456 M 2881 -407 V 962 M 2882 -533 V 772 M 2883 -279 V 596 M 2884 -397 V 452 M 2885 -361 V 462 M 2886 -487 V 356 M 2887 -343 V 244 M 2888 -251 V 133 M 2889 -199 V 279 M 2890 -213 V 298 M 2891 -99 V 202 M 2892 -55 V 45 M 2893 -69 V 81 M 2894 -141 V 139 M 2895 -155 V 168 M 2896 -137 V 127 M 2897 -67 V 44 M 2898 -44 V 44 M 2899 -58 V 36 M 2900 -52 V 54 M 2901 -48 V 27 M 2902 -30 V 34 M 2903 -43 V 35 M 2904 -26 V 30 M 2905 -38 V 51 M 2906 -84 V 85 M 2907 -293 V 232 M 2908 -3921 V 3768 M 2909 -14999 V 13794 M 2910 -7859 V 7959 M 2911 -3717 V 4023 M 2912 -3515 V 4222 M 2913 -4327 V 3619 M 2914 -4726 V 2776 M 2915 -6706 V 7083 M 2916 -5929 V 4129 M 2917 -6163 V 5595 M 2918 -9480 V 14902 M 2919 -9004 V 8224 M 2920 -9300 V 8266 M 2921 -7446 V 6865 M 2922 -6060 V 6562 M 2923 -6063 V 5283 M 2924 -5114 V 7147 M 2925 -6007 V 3242 M 2926 -3637 V 3369 M 2927 -1734 V 1747 M 2928 -3105 V 4007 M 2929 -2843 V 2394 M 2930 -2725 V 4777 M 2931 -4420 V 3702 M 2932 -3932 V 2577 M 2933 -5982 V 4552 M 2934 -7521 V 3942 M 2935 -7214 V 5549 M 2936 -7298 V 5788 M 2937 -7654 V 5672 M 2938 -6767 V 5510 M 2939 -5988 V 3521 M 2940 -5247 V 2796 M 2941 -4851 V 3871 M 2942 -5624 V 3876 M 2943 -3746 V 4034 M 2944 -2921 V 3347 M 2945 -1971 V 2663 M 2946 -1001 V 831 M 2947 -1232 V 1316 M 2948 -2001 V 1296 M 2949 -1319 V 2338 M 2950 -4169 V 3774 M 2951 -4467 V 5183 M 2952 -4572 V 4752 M 2953 -5455 V 5469 M 2954 -5609 V 6785 M 2955 -6012 V 8299 M 2956 -6480 V 8817 M 2957 -5791 V 6726 M 2958 -6169 V 5133 M 2959 -4840 V 5797 M 2960 -3231 V 3548 M 2961 -4776 V 3541 M 2962 -2826 V 1627 M 2963 -1987 V 2684 M 2964 -1987 V 1690 M 2965 -2391 V 3213 M 2966 -4272 V 4662 M 2967 -4047 V 2874 M 2968 -4772 V 3776 M 2969 -5590 V 5897 M 2970 -6036 V 7066 M 2971 -5993 V 7324 M 2972 -5589 V 6437 M 2973 -6176 V 3618 M 2974 -5753 V 5981 M 2975 -6687 V 6381 M 2976 -7718 V 7366 M 2977 -7069 V 7587 M 2978 -7142 V 7600 M 2979 -6446 V 6954 M 2980 -5428 V 6457 M 2981 -2895 V 6276 M 2982 -3997 V 4143 M 2983 -4531 V 3587 M 2984 -4336 V 3346 M 2985 -4023 V 2715 M 2986 -4026 V 2780 M 2987 -3243 V 3025 M 2988 -3021 V 2453 M 2989 -2833 V 2242 M 2990 -1837 V 2187 M 2991 -816 V 1443 M 2992 -647 V 854 M 2993 -739 V 950 M 2994 -2040 V 3039 M 2995 -2071 V 2649 M 2996 -968 V 1961 M 2997 -1558 V 1207 M 2998 -1036 V 782 M 2999 -856 V 692 M 3000 -1818 V 771 M 3001 -3422 V 1797 M 3002 -3222 V 2966 M 3003 -4595 V 5388 M 3004 -4690 V 4732 M 3005 -3076 V 4261 M 3006 -3307 V 3323 M 3007 -2180 V 2244 M 3008 -2396 V 1839 M 3009 -647 V 1234 M 3010 -921 V 520 M 3011 -825 V 891 M 3012 -1066 V 1585 M 3013 -1082 V 318 M 3014 -324 V 156 M 3015 -259 V 234 M 3016 -204 V 222 M 3017 -199 V 251 M 3018 -307 V 123 M 3019 -518 V 351 M 3020 -638 V 861 M 3021 -1547 V 808 M 3022 -1117 V 1370 M 3023 -1097 V 1689 M 3024 -1576 V 1412 M 3025 -1063 V 1233 M 3026 -1144 V 910 M 3027 -1328 V 1297 M 3028 -1462 V 1102 M 3029 -2608 V 2299 M 3030 -2396 V 2263 M 3031 -1822 V 2078 M 3032 -2095 V 1965 M 3033 -1864 V 2476 M 3034 -2026 V 2200 M 3035 -1379 V 1184 M 3036 -1526 V 1668 M 3037 -1435 V 1452 M 3038 -1226 V 929 M 3039 -1470 V 1331 M 3040 -1298 V 1466 M 3041 -856 V 878 M 3042 -1029 V 956 M 3043 -1462 V 1287 M 3044 -1318 V 1270 M 3045 -968 V 821 M 3046 -1031 V 1022 M 3047 -591 V 725 M 3048 -621 V 789 M 3049 -1302 V 1866 M 3050 -2336 V 2343 M 3051 -3814 V 2208 M 3052 -3720 V 2452 M 3053 -5445 V 3443 M 3054 -2692 V 3109 M 3055 -2129 V 3346 M 3056 -2589 V 3606 M 3057 -2689 V 2207 M 3058 -3670 V 4999 M 3059 -3536 V 4793 M 3060 -4528 V 3010 M 3061 -3260 V 2891 M 3062 -2335 V 2612 M 3063 -3266 V 4800 M 3064 -2855 V 3072 M 3065 -1817 V 1615 M 3066 -2849 V 3407 M 3067 -1414 V 2924 M 3068 -2909 V 3403 M 3069 -3158 V 2980 M 3070 -2732 V 3010 M 3071 -2616 V 3196 M 3072 -2466 V 1936 M 3073 -2156 V 2386 M 3074 -2289 V 2714 M 3075 -2327 V 1715 M 3076 -3140 V 3417 M 3077 -3190 V 4846 M 3078 -2667 V 3932 M 3079 -2853 V 2175 M 3080 -1660 V 2593 M 3081 -2775 V 4322 M 3082 -2142 V 2143 M 3083 -3118 V 2969 M 3084 -1686 V 1603 M 3085 -2456 V 1516 M 3086 -2151 V 2000 M 3087 -1858 V 2554 M 3088 -1547 V 1549 M 3089 -1338 V 794 M 3090 -1940 V 1155 M 3091 -1314 V 1256 M 3092 -1019 V 793 M 3093 -407 V 378 M 3094 -404 V 461 M 3095 -402 V 239 M 3096 -204 V 246 M 3097 -230 V 301 M 3098 -142 V 214 M 3099 -101 V 94 M 3100 -67 V 92 M 3101 -58 V 62 M 3102 -50 V 57 M 3103 -31 V 40 M 3104 -59 V 55 M 3105 -53 V 38 M 3106 -34 V 50 M 3107 -95 V 74 M 3108 -53 V 38 M 3109 -70 V 47 M 3110 -93 V 59 M 3111 -42 V 58 M 3112 -76 V 56 M 3113 -35 V 46 M 3114 -32 V 27 M 3115 -34 V 37 M 3116 -66 V 68 M 3117 -42 V 70 M 3118 -41 V 49 M 3119 -40 V 64 M 3120 -49 V 62 M 3121 -60 V 55 M 3122 -48 V 53 M 3123 -47 V 38 M 3124 -39 V 30 M 3125 -33 V 28 M 3126 -21 V 25 M 3127 -39 V 34 M 3128 -45 V 31 M 3129 -47 V 48 M 3130 -100 V 36 M 3131 -84 V 51 M 3132 -60 V 63 M 3133 -67 V 87 M 3134 -57 V 59 M 3135 -43 V 71 M 3136 -45 V 68 M 3137 -41 V 39 M 3138 -62 V 53 M 3139 -108 V 41 M 3140 -70 V 53 M 3141 -39 V 69 M 3142 -43 V 59 M 3143 -33 V 28 M 3144 -68 V 44 M 3145 -51 V 58 M 3146 -43 V 39 M 3147 -35 V 36 M 3148 -41 V 38 M 3149 -32 V 34 M 3150 -35 V 32 M 3151 -64 V 51 M 3152 -61 V 75 M 3153 -44 V 73 M 3154 -45 V 51 M 3155 -46 V 55 M 3156 -30 V 54 M 3157 -73 V 49 M 3158 -42 V 59 M 3159 -62 V 46 M 3160 -45 V 83 M 3161 -77 V 62 M 3162 -70 V 87 M 3163 -52 V 50 M 3164 -59 V 47 M 3165 -66 V 65 M 3166 -66 V 44 M 3167 -60 V 42 M 3168 -54 V 70 M 3169 -58 V 67 M 3170 -73 V 70 M 3171 -57 V 83 M 3172 -48 V 49 M 3173 -69 V 68 M 3174 -65 V 43 M 3175 -60 V 48 M 3176 -72 V 63 M 3177 -118 V 74 M 3178 -44 V 92 M 3179 -53 V 41 M 3180 -51 V 65 M 3181 -46 V 46 M 3182 -69 V 41 M 3183 -86 V 52 M 3184 -63 V 58 M 3185 -54 V 56 M 3186 -75 V 72 M 3187 -64 V 47 M 3188 -78 V 76 M 3189 -59 V 62 M 3190 -81 V 59 M 3191 -103 V 111 M 3192 -99 V 90 M 3193 -456 V 407 M 3194 -196 V 219 M 3195 -149 V 205 M 3196 -202 V 287 M 3197 -1551 V 1230 M 3198 -1138 V 777 M 3199 -610 V 496 M 3200 -483 V 351 M 3201 -248 V 374 M 3202 -247 V 237 M 3203 -166 V 168 M 3204 -150 V 127 M 3205 -131 V 105 M 3206 -129 V 95 M 3207 -56 V 88 M 3208 -62 V 78 M 3209 -58 V 96 M 3210 -69 V 47 M 3211 -65 V 77 M 3212 -69 V 95 M 3213 -67 V 54 M 3214 -80 V 41 M 3215 -54 V 54 M 3216 -60 V 55 M 3217 -59 V 42 M 3218 -73 V 53 M 3219 -59 V 62 M 3220 -78 V 96 M 3221 -59 V 44 M 3222 -51 V 77 M 3223 -46 V 46 M 3224 -51 V 54 M 3225 -33 V 38 M 3226 -74 V 47 M 3227 -60 V 62 M 3228 -66 V 56 M 3229 -48 V 35 M 3230 -67 V 71 M 3231 -39 V 33 M 3232 -39 V 53 M 3233 -40 V 41 M 3234 -53 V 80 M 3235 -111 V 64 M 3236 -71 V 4 M 3237 -4 V 5 M 3238 -4 V 4 M 3239 -3 V 4 M 3240 -3 V 2 M 3241 -3 V 3 M 3242 -4 V 2 M 3243 -4 V 3 M 3244 -5 V 3 M 3245 -61 V 39 M 3246 -47 V 40 M 3247 -84 V 65 M 3248 -69 V 73 M 3249 -37 V 42 M 3250 -65 V 41 M 3251 -41 V 78 M 3252 -47 V 54 M 3253 -50 V 36 M 3254 -66 V 42 M 3255 -36 V 45 M 3256 -36 V 32 M 3257 -52 V 39 M 3258 -57 V 92 M 3259 -47 V 48 M 3260 -43 V 41 M 3261 -57 V 60 M 3262 -28 V 52 M 3263 -59 V 46 M 3264 -33 V 44 M 3265 -31 V 26 M 3266 -39 V 59 M 3267 -35 V 51 M 3268 -27 V 35 M 3269 -29 V 33 M 3270 -53 V 63 M 3271 -23 V 23 M 3272 -60 V 66 M 3273 -62 V 56 M 3274 -48 V 37 M 3275 -61 V 40 M 3276 -57 V 41 M 3277 -33 V 23 M 3278 -45 V 40 M 3279 -27 V 39 M 3280 -28 V 22 M 3281 -51 V 51 M 3282 -63 V 51 M 3283 -31 V 47 M 3284 -63 V 65 M 3285 -41 V 60 M 3286 -42 V 55 M 3287 -23 V 30 M 3288 -53 V 72 M 3289 -172 V 94 M 3290 -3669 V 5538 M 3291 -4395 V 7127 M 3292 -4586 V 3917 M 3293 -3177 V 2693 M 3294 -6851 V 7276 M 3295 -6971 V 6524 M 3296 -5635 V 9253 M 3297 -9353 V 11321 M 3298 -6549 V 8457 M 3299 -5825 V 7075 M 3300 -5134 V 5488 M 3301 -4868 V 6114 M 3302 -4986 V 8169 M 3303 -5415 V 7615 M 3304 -6999 V 7153 M 3305 -5490 V 6711 M 3306 -2702 V 5361 M 3307 -5444 V 6130 M 3308 -4400 V 5692 M 3309 -4405 V 4907 M 3310 -3647 V 3249 M 3311 -5456 V 7583 M 3312 -6456 V 8782 M 3313 -4835 V 11922 M 3314 -7317 V 3962 M 3315 -7364 V 14210 M 3316 -7173 V 16501 M 3317 -7264 V 11324 M 3318 -5236 V 7316 M 3319 -9391 V 9987 M 3320 -8751 V 8514 M 3321 -6305 V 8737 M 3322 -5461 V 5905 M 3323 -5179 V 6891 M 3324 -3716 V 2732 M 3325 -3044 V 6910 M 3326 -3241 V 5925 M 3327 -3274 V 5118 M 3328 -3055 V 5532 M 3329 -5035 V 2303 M 3330 -3330 V 5700 M 3331 -3487 V 4944 M 3332 -4054 V 1712 M 3333 -2740 V 5374 M 3334 -3075 V 4491 M 3335 -2969 V 1774 M 3336 -4472 V 5105 M 3337 -4238 V 7470 M 3338 -5389 V 2207 M 3339 -4791 V 8045 M 3340 -5490 V 7844 M 3341 -5971 V 6081 M 3342 -4411 V 7855 M 3343 -4942 V 6019 M 3344 -4904 V 7924 M 3345 -2033 V 4314 M 3346 -1957 V 1973 M 3347 -2325 V 3293 M 3348 -3592 V 3226 M 3349 -4301 V 4939 M 3350 -3259 V 5224 M 3351 -3818 V 3276 M 3352 -3186 V 5996 M 3353 -3929 V 5845 M 3354 -4489 V 8460 M 3355 -5453 V 11500 M 3356 -4968 V 3068 M 3357 -6246 V 11486 M 3358 -4514 V 5363 M 3359 -6949 V 10700 M 3360 -4016 V 7589 M 3361 -7441 V 8184 M 3362 -2786 V 3617 M 3363 -4771 V 3328 M 3364 -3153 V 1936 M 3365 -1564 V 1811 M 3366 -2436 V 2102 M 3367 -1675 V 2052 M 3368 -1924 V 1268 M 3369 -855 V 1422 M 3370 -857 V 508 M 3371 -810 V 1150 M 3372 -461 V 760 M 3373 -653 V 882 M 3374 -991 V 1244 M 3375 -1870 V 1902 M 3376 -1090 V 1158 M 3377 -2054 V 1744 M 3378 -1749 V 1297 M 3379 -2520 V 2013 M 3380 -1595 V 1454 M 3381 -2311 V 2697 M 3382 -1784 V 1461 M 3383 -1975 V 2388 M 3384 -1139 V 1035 M 3385 -1531 V 1568 M 3386 -1271 V 787 M 3387 -1388 V 2020 M 3388 -1451 V 1033 M 3389 -1882 V 2103 M 3390 -1486 V 1017 M 3391 -3126 V 2693 M 3392 -1027 V 740 M 3393 -1685 V 2042 M 3394 -1094 V 1022 M 3395 -1136 V 2149 M 3396 -1043 V 688 M 3397 -1075 V 1578 M 3398 -1692 V 2107 M 3399 -1393 V 2961 M 3400 -1060 V 1035 M 3401 -1595 V 1354 M 3402 -1475 V 1432 M 3403 -1644 V 2857 M 3404 -1210 V 996 M 3405 -662 V 574 M 3406 -622 V 1011 M 3407 -414 V 228 M 3408 -199 V 263 M 3409 -109 V 96 M 3410 -63 V 84 M 3411 -64 V 82 M 3412 -121 V 125 M 3413 -95 V 181 M 3414 -171 V 155 M 3415 -109 V 98 M 3416 -92 V 94 M 3417 -30 V 75 M 3418 -39 V 55 M 3419 -35 V 31 M 3420 -57 V 62 M 3421 -25 V 41 M 3422 -62 V 34 M 3423 -74 V 56 M 3424 -644 V 1432 M 3425 -977 V 1537 M 3426 -1258 V 1129 M 3427 -1187 V 2007 M 3428 -3826 V 5967 M 3429 -3182 V 5272 M 3430 -6534 V 7902 M 3431 -5737 V 5652 M 3432 -4735 V 10200 M 3433 -4204 V 8085 M 3434 -4206 V 5117 M 3435 -3234 V 6613 M 3436 -5307 V 4712 M 3437 -3432 V 5383 M 3438 -3634 V 3047 M 3439 -2932 V 5539 M 3440 -2546 V 1940 M 3441 -2436 V 2449 M 3442 -3533 V 4530 M 3443 -2488 V 1210 M 3444 -2228 V 1959 M 3445 -1780 V 1451 M 3446 -1731 V 2650 M 3447 -1753 V 1553 M 3448 -1975 V 1046 M 3449 -826 V 765 M 3450 -1523 V 4411 M 3451 -1946 V 1503 M 3452 -1744 V 2263 M 3453 -1427 V 1038 M 3454 -1474 V 2671 M 3455 -1120 V 854 M 3456 -1780 V 1617 M 3457 -1008 V 1113 M 3458 -694 V 543 M 3459 -365 V 751 M 3460 -468 V 366 M 3461 -372 V 318 M 3462 -173 V 157 M 3463 -144 V 201 M 3464 -186 V 188 M 3465 -254 V 178 M 3466 -231 V 326 M 3467 -75 V 208 M 3468 -136 V 142 M 3469 -126 V 100 M 3470 -99 V 101 M 3471 -136 V 130 M 3472 -385 V 442 M 3473 -602 V 567 M 3474 -635 V 579 M 3475 -730 V 946 M 3476 -847 V 796 M 3477 -1103 V 952 M 3478 -975 V 1053 M 3479 -1331 V 1231 M 3480 -1132 V 1226 M 3481 -1110 V 1061 M 3482 -734 V 783 M 3483 -681 V 704 M 3484 -726 V 542 M 3485 -439 V 388 M 3486 -772 V 615 M 3487 -567 V 1210 M 3488 -2266 V 2245 M 3489 -1492 V 454 M 3490 -1756 V 2025 M 3491 -1347 V 1113 M 3492 -1731 V 1600 M 3493 -1206 V 1761 M 3494 -1035 V 2456 M 3495 -1096 V 1139 M 3496 -703 V 990 M 3497 -1916 V 3181 M 3498 -1542 V 944 M 3499 -979 V 1014 M 3500 -1239 V 1096 M 3501 -637 V 879 M 3502 -691 V 546 M 3503 -886 V 642 M 3504 -478 V 511 M 3505 -498 V 657 M 3506 -1226 V 1822 M 3507 -742 V 894 M 3508 -456 V 595 M 3509 -514 V 763 M 3510 -793 V 592 M 3511 -506 V 437 M 3512 -359 V 557 M 3513 -530 V 522 M 3514 -423 V 295 M 3515 -318 V 335 M 3516 -417 V 750 M 3517 -786 V 563 M 3518 -280 V 266 M 3519 -444 V 394 M 3520 -435 V 468 M 3521 -533 V 568 M 3522 -411 V 423 M 3523 -274 V 243 M 3524 -283 V 264 M 3525 -225 V 233 M 3526 -200 V 163 M 3527 -134 V 99 M 3528 -63 V 68 M 3529 -54 V 61 M 3530 -60 V 65 M 3531 -52 V 71 M 3532 -30 V 43 M 3533 -22 V 28 M 3534 -45 V 51 M 3535 -45 V 30 M 3536 -42 V 37 M 3537 -35 V 33 M 3538 -45 V 42 M 3539 -35 V 33 M 3540 -55 V 80 M 3541 -53 V 66 M 3542 -59 V 61 M 3543 -65 V 48 M 3544 -141 V 112 M 3545 -1025 V 1006 M 3546 -736 V 1014 M 3547 -801 V 900 M 3548 -259 V 170 M 3549 -270 V 274 M 3550 -246 V 263 M 3551 -334 V 388 M 3552 -92 V 258 M 3553 -162 V 187 M 3554 -492 V 469 M 3555 -285 V 319 M 3556 -1245 V 2129 M 3557 -625 V 876 M 3558 -475 V 345 M 3559 -459 V 529 M 3560 -739 V 573 M 3561 -3624 V 3733 M 3562 -1685 V 1370 M 3563 -1309 V 1695 M 3564 -1566 V 1242 M 3565 -903 V 1016 M 3566 -727 V 922 M 3567 -856 V 883 M 3568 -547 V 517 M 3569 -611 V 430 M 3570 -10424 V 12532 M 3571 -7436 V 6463 M 3572 -3951 V 4573 M 3573 -3047 V 3455 M 3574 -3761 V 4666 M 3575 -4848 V 4119 M 3576 -4326 V 7408 M 3577 -6480 V 7667 M 3578 -13627 V 13332 M 3579 -16107 V 10158 M 3580 -13890 V 7980 M 3581 -8269 V 8779 M 3582 -10621 V 7055 M 3583 -9360 V 9735 M 3584 -6744 V 8560 M 3585 -7163 V 10526 M 3586 -9909 V 6839 M 3587 -6552 V 3754 M 3588 -4909 V 5555 M 3589 -5761 V 5192 M 3590 -5884 V 4825 M 3591 -5239 V 4106 M 3592 -4970 V 5906 M 3593 -5748 V 4154 M 3594 -5580 V 6850 M 3595 -5352 V 7852 M 3596 -6006 V 4853 M 3597 -6071 V 4986 M 3598 -6817 V 7273 M 3599 -8728 V 6271 M 3600 -9323 V 8381 M 3601 -7374 V 8058 M 3602 -5725 V 7401 M 3603 -5651 V 6944 M 3604 -5015 V 3708 M 3605 -5386 V 4973 M 3606 -3340 V 4060 M 3607 -3345 V 3571 M 3608 -4671 V 3815 M 3609 -5132 V 6180 M 3610 -6590 V 5753 M 3611 -5900 V 6242 M 3612 -4082 V 7387 M 3613 -4355 V 5686 M 3614 -4175 V 5126 M 3615 -2992 V 4300 M 3616 -3526 V 7178 M 3617 -4932 V 4844 M 3618 -4568 V 4823 M 3619 -4743 V 2920 M 3620 -3680 V 7278 M 3621 -4989 V 8187 M 3622 -4792 V 8684 M 3623 -3154 V 2529 M 3624 -3695 V 6147 M 3625 -3462 V 4110 M 3626 -3687 V 2771 M 3627 -3878 V 6246 M 3628 -3741 V 7248 M 3629 -4545 V 7153 M 3630 -4689 V 4800 M 3631 -4345 V 6070 M 3632 -3746 V 5090 M 3633 -3179 V 4711 M 3634 -1893 V 6118 M 3635 -3480 V 3358 M 3636 -2556 V 5739 M 3637 -1500 V 3337 M 3638 -3094 V 2223 M 3639 -2419 V 3144 M 3640 -1919 V 1360 M 3641 -1868 V 2094 M 3642 -932 V 1584 M 3643 -1721 V 1226 M 3644 -1157 V 1364 M 3645 -1706 V 1176 M 3646 -1244 V 791 M 3647 -889 V 1291 M 3648 -1374 V 1486 M 3649 -1056 V 1649 M 3650 -1349 V 1398 M 3651 -1766 V 1784 M 3652 -2011 V 2011 M 3653 -1462 V 2238 M 3654 -2359 V 1797 M 3655 -2095 V 2412 M 3656 -2026 V 3680 M 3657 -1790 V 2397 M 3658 -1594 V 2618 M 3659 -1676 V 2090 M 3660 -2030 V 1353 M 3661 -1031 V 2765 M 3662 -1907 V 809 M 3663 -1823 V 2826 M 3664 -1087 V 927 M 3665 -2644 V 2977 M 3666 -1532 V 1765 M 3667 -1174 V 2177 M 3668 -751 V 913 M 3669 -1165 V 981 M 3670 -1138 V 1160 M 3671 -878 V 634 M 3672 -789 V 1360 M 3673 -975 V 989 M 3674 -1079 V 1764 M 3675 -1220 V 1222 M 3676 -1161 V 1775 M 3677 -950 V 944 M 3678 -728 V 801 M 3679 -793 V 625 M 3680 -694 V 1269 M 3681 -669 V 657 M 3682 -663 V 598 M 3683 -326 V 428 M 3684 -520 V 603 M 3685 -430 V 362 M 3686 -370 V 460 M 3687 -538 V 725 M 3688 -468 V 358 M 3689 -473 V 494 M 3690 -692 V 691 M 3691 -447 V 346 M 3692 -259 V 238 M 3693 -142 V 136 M 3694 -117 V 70 M 3695 -60 V 48 M 3696 -46 V 59 M 3697 -47 V 38 M 3698 -48 V 74 M 3699 -33 V 77 M 3700 -46 V 34 M 3701 -62 V 75 M 3702 -75 V 64 M 3703 -46 V 50 M 3704 -46 V 51 M 3705 -145 V 100 M 3706 -117 V 110 M 3707 -53 V 94 M 3708 -61 V 79 M 3709 -48 V 80 M 3710 -59 V 40 M 3711 -79 V 47 M 3712 -35 V 46 M 3713 -41 V 38 M 3714 -41 V 48 M 3715 -65 V 53 M 3716 -49 V 36 M 3717 -49 V 70 M 3718 -46 V 31 M 3719 -57 V 41 M 3720 -59 V 70 M 3721 -80 V 65 M 3722 -88 V 40 M 3723 -96 V 59 M 3724 -36 V 66 M 3725 -39 V 35 M 3726 -50 V 59 M 3727 -39 V 41 M 3728 -46 V 46 M 3729 -56 V 50 M 3730 -50 V 54 M 3731 -40 V 42 M 3732 -41 V 60 M 3733 -39 V 62 M 3734 -55 V 64 M 3735 -40 V 25 M 3736 -29 V 38 M 3737 -30 V 43 M 3738 -43 V 42 M 3739 -47 V 42 M 3740 -52 V 47 M 3741 -54 V 47 M 3742 -62 V 52 M 3743 -59 V 63 M 3744 -66 V 55 M 3745 -56 V 33 M 3746 -80 V 78 M 3747 -66 V 71 M 3748 -34 V 65 M 3749 -57 V 29 M 3750 -40 V 36 M 3751 -50 V 49 M 3752 -34 V 38 M 3753 -32 V 47 M 3754 -44 V 38 M 3755 -32 V 30 M 3756 -35 V 35 M 3757 -24 V 58 M 3758 -43 V 61 M 3759 -92 V 56 M 3760 -41 V 52 M 3761 -39 V 81 M 3762 -82 V 59 M 3763 -71 V 42 M 3764 -60 V 61 M 3765 -58 V 39 M 3766 -32 V 34 M 3767 -46 V 31 M 3768 -41 V 30 M 3769 -52 V 24 M 3770 -38 V 42 M 3771 -32 V 45 M 3772 -34 V 32 M 3773 -27 V 32 M 3774 -31 V 28 M 3775 -46 V 57 M 3776 -33 V 61 M 3777 -57 V 52 M 3778 -61 V 68 M 3779 -81 V 51 M 3780 -50 V 64 M 3781 -56 V 56 M 3782 -78 V 99 M 3783 -54 V 84 M 3784 -118 V 76 M 3785 -5 V 3 M 3786 -4 V 3 M 3787 -4 V 3 M 3788 -5 V 4 M 3789 -4 V 3 M 3790 -4 V 3 M 3791 -4 V 2 M 3792 -3 V 2 M 3793 -4 V 2 M 3794 -4 V 4 M 3795 -4 V 2 M 3796 -3 V 3 M 3797 -3 V 2 M 3798 -5 V 3 M 3799 -3 V 2 M 3800 -4 V 2 M 3801 -4 V 4 M 3802 -4 V 3 M 3803 -3 V 2 M 3804 -3 V 3 M 3805 -3 V 3 M 3806 -4 V 2 M 3807 -4 V 3 M 3808 -4 V 3 M 3809 -4 V 2 M 3810 -5 V 3 M 3811 -4 V 4 M 3812 -5 V 3 M 3813 -4 V 3 M 3814 -4 V 3 M 3815 -3 V 2 M 3816 -3 V 2 M 3817 -4 V 3 M 3818 -4 V 3 M 3819 -4 V 3 M 3820 -4 V 3 M 3821 -4 V 2 M 3822 -4 V 2 M 3823 -3 V 3 M 3824 -4 V 3 M 3825 -4 V 3 M 3826 -5 V 4 M 3827 -3 V 3 M 3828 -4 V 3 M 3829 -3 V 2 M 3830 -4 V 3 M 3831 -3 V 2 M 3832 -3 V 3 M 3833 -3 V 3 M 3834 -4 V 3 M 3835 -4 V 3 M 3836 -3 V 2 M 3837 -3 V 3 M 3838 -4 V 3 M 3839 -3 V 2 M 3840 -5 V 3 M 3841 -4 V 3 M 3842 -5 V 3 M 3843 -5 V 3 M 3844 -4 V 3 M 3845 -4 V 3 M 3846 -3 V 2 M 3847 -3 V 2 M 3848 -4 V 3 M 3849 -4 V 2 M 3850 -4 V 3 M 3851 -5 V 3 M 3852 -3 V 3 M 3853 -4 V 3 M 3854 -3 V 2 M 3855 -5 V 3 M 3856 -4 V 3 M 3857 -3 V 2 M 3858 -3 V 2 M 3859 -3 V 2 M 3860 -4 V 3 M 3861 -3 V 2 M 3862 -4 V 2 M 3863 -4 V 4 M 3864 -3 V 1 M 3865 -4 V 3 M 3866 -3 V 3 M 3867 -3 V 3 M 3868 -3 V 2 M 3869 -4 V 4 M 3870 -3 V 2 M 3871 -4 V 3 M 3872 -4 V 2 M 3873 -3 V 3 M 3874 -4 V 3 M 3875 -4 V 4 M 3876 -3 V 3 M 3877 -4 V 2 M 3878 -3 V 2 M 3879 -4 V 3 M 3880 -4 V 2 M 3881 -3 V 2 M 3882 -3 V 3 M 3883 -4 V 3 M 3884 -4 V 3 M 3885 -4 V 2 M 3886 -3 V 2 M 3887 -3 V 2 M 3888 -4 V 3 M 3889 -3 V 2 M 3890 -3 V 2 M 3891 -3 V 2 M 3892 -4 V 2 M 3893 -3 V 2 M 3894 -4 V 3 M 3895 -4 V 3 M 3896 -4 V 3 M 3897 -3 V 1 M 3898 -4 V 3 M 3899 -4 V 3 M 3900 -5 V 3 M 3901 -4 V 3 M 3902 -4 V 2 M 3903 -3 V 2 M 3904 -3 V 2 M 3905 -4 V 3 M 3906 -4 V 3 M 3907 -4 V 4 M 3908 -4 V 3 M 3909 -4 V 3 M 3910 -3 V 3 M 3911 -4 V 3 M 3912 -4 V 3 M 3913 -4 V 3 M 3914 -4 V 3 M 3915 -3 V 2 M 3916 -4 V 3 M 3917 -5 V 4 M 3918 -4 V 3 M 3919 -3 V 3 M 3920 -3 V 3 M 3921 -4 V 3 M 3922 -4 V 4 M 3923 -5 V 4 M 3924 -4 V 3 M 3925 -4 V 3 M 3926 -4 V 3 M 3927 -3 V 2 M 3928 -4 V 3 M 3929 -3 V 3 M 3930 -3 V 2 M 3931 -5 V 3 M 3932 -3 V 3 M 3933 -4 V 3 M 3934 -3 V 3 M 3935 -4 V 3 M 3936 -3 V 2 M 3937 -4 V 2 M 3938 -3 V 2 M 3939 -4 V 2 M 3940 -4 V 3 M 3941 -3 V 2 M 3942 -4 V 3 M 3943 -4 V 3 M 3944 -3 V 3 M 3945 -3 V 3 M 3946 -4 V 3 M 3947 -3 V 3 M 3948 -4 V 2 M 3949 -3 V 2 M 3950 -4 V 3 M 3951 -3 V 3 M 3952 -4 V 3 M 3953 -4 V 3 M 3954 -4 V 3 M 3955 -3 V 2 M 3956 -4 V 2 M 3957 -4 V 2 M 3958 -3 V 2 M 3959 -3 V 3 M 3960 -4 V 3 M 3961 -4 V 3 M 3962 -4 V 3 M 3963 -4 V 4 M 3964 -4 V 2 M 3965 -4 V 3 M 3966 -4 V 4 M 3967 -3 V 3 M 3968 -4 V 3 M 3969 -3 V 2 M 3970 -3 V 2 M 3971 -4 V 3 M 3972 -4 V 2 M 3973 -4 V 3 M 3974 -4 V 3 M 3975 -4 V 3 M 3976 -4 V 2 M 3977 -2 V 2 M 3978 -5 V 4 M 3979 -4 V 3 M 3980 -4 V 2 M 3981 -4 V 3 M 3982 -4 V 2 M 3983 -4 V 3 M 3984 -4 V 3 M 3985 -4 V 3 M 3986 -4 V 3 M 3987 -5 V 3 M 3988 -3 V 2 M 3989 -3 V 2 M 3990 -3 V 2 M 3991 -4 V 3 M 3992 -4 V 3 M 3993 -4 V 3 M 3994 -3 V 2 M 3995 -4 V 3 M 3996 -4 V 4 M 3997 -3 V 3 M 3998 -3 V 2 M 3999 -4 V 3 M 4000 -4 V 3 M 4001 -4 V 3 M 4002 -5 V 4 M 4003 -4 V 3 M 4004 -5 V 3 M 4005 -3 V 3 M 4006 -4 V 3 M 4007 -4 V 3 M 4008 -3 V 3 M 4009 -4 V 3 M 4010 -3 V 2 M 4011 -3 V 2 M 4012 -3 V 3 M 4013 -4 V 3 M 4014 -3 V 3 M 4015 -3 V 2 M 4016 -4 V 2 M 4017 -3 V 2 M 4018 -5 V 3 M 4019 -3 V 2 M 4020 -3 V 3 M 4021 -3 V 4 M 4022 -4 V 2 M 4023 -3 V 3 M 4024 -3 V 2 M 4025 -4 V 3 M 4026 -4 V 3 M 4027 -3 V 3 M 4028 -4 V 3 M 4029 -3 V 2 M 4030 -4 V 4 M 4031 -3 V 3 M 4032 -4 V 3 M 4033 -3 V 2 M 4034 -4 V 3 M 4035 -3 V 3 M 4036 -3 V 2 M 4037 -3 V 3 M 4038 -3 V 3 M 4039 -3 V 3 M 4040 -3 V 2 M 4041 -3 V 2 M 4042 -4 V 4 M 4043 -3 V 3 M 4044 -5 V 3 M 4045 -4 V 4 M 4046 -5 V 3 M 4047 -4 V 2 M 4048 -4 V 3 M 4049 -4 V 4 M 4050 -4 V 3 M 4051 -4 V 3 M 4052 -3 V 2 M 4053 -3 V 2 M 4054 -3 V 3 M 4055 -3 V 3 M 4056 -3 V 3 M 4057 -4 V 2 M 4058 -3 V 3 M 4059 -3 V 2 M 4060 -5 V 3 M 4061 -4 V 2 M 4062 -3 V 3 M 4063 -3 V 2 M 4064 -4 V 4 M 4065 -5 V 3 M 4066 -4 V 2 M 4067 -3 V 2 M 4068 -3 V 2 M 4069 -4 V 3 M 4070 -3 V 2 M 4071 -5 V 4 M 4072 -4 V 3 M 4073 -3 V 2 M 4074 -3 V 3 M 4075 -5 V 3 M 4076 -4 V 4 M 4077 -4 V 3 M 4078 -3 V 3 M 4079 -4 V 3 M 4080 -4 V 3 M 4081 -4 V 3 M 4082 -4 V 2 M 4083 -3 V 2 M 4084 -4 V 3 M 4085 -4 V 3 M 4086 -3 V 2 M 4087 -3 V 2 M 4088 -3 V 2 M 4089 -3 V 2 M 4090 -3 V 3 M 4091 -3 V 2 M 4092 -3 V 3 M 4093 -3 V 2 M 4094 -3 V 2 M 4095 -3 V 3 M 4096 -3 V 2 M 4097 -4 V 4 M 4098 -5 V 4 M 4099 -3 V 2 M 4100 -4 V 3 M 4101 -5 V 4 M 4102 -3 V 3 M 4103 -3 V 2 M 4104 -4 V 3 M 4105 -3 V 3 M 4106 -3 V 2 M 4107 -4 V 3 M 4108 -4 V 3 M 4109 -4 V 3 M 4110 -3 V 2 M 4111 -4 V 4 M 4112 -4 V 3 M 4113 -4 V 3 M 4114 -3 V 3 M 4115 -3 V 2 M 4116 -4 V 3 M 4117 -3 V 3 M 4118 -4 V 2 M 4119 -4 V 3 M 4120 -4 V 2 M 4121 -4 V 2 M 4122 -3 V 2 M 4123 -3 V 2 M 4124 -3 V 3 M 4125 -4 V 3 M 4126 -3 V 3 M 4127 -4 V 3 M 4128 -4 V 4 M 4129 -3 V 2 M 4130 -4 V 3 M 4131 -4 V 3 M 4132 -3 V 1 M 4133 -4 V 2 M 4134 -4 V 3 M 4135 -3 V 3 M 4136 -3 V 2 M 4137 -5 V 3 M 4138 -3 V 3 M 4139 -4 V 3 M 4140 -4 V 3 M 4141 -4 V 2 M 4142 -4 V 3 M 4143 -3 V 2 M 4144 -3 V 2 M 4145 -4 V 3 M 4146 -3 V 2 M 4147 -3 V 2 M 4148 -4 V 3 M 4149 -4 V 2 M 4150 -5 V 3 M 4151 -3 V 3 M 4152 -4 V 2 M 4153 -3 V 2 M 4154 -4 V 3 M 4155 -5 V 3 M 4156 -4 V 3 M 4157 -4 V 3 M 4158 -3 V 2 M 4159 -4 V 4 M 4160 -4 V 3 M 4161 -4 V 2 M 4162 -4 V 2 M 4163 -4 V 2 M 4164 -3 V 3 M 4165 -4 V 3 M 4166 -4 V 2 M 4167 -3 V 2 M 4168 -4 V 2 M 4169 -3 V 2 M 4170 -3 V 2 M 4171 -4 V 2 M 4172 -3 V 2 M 4173 -4 V 3 M 4174 -3 V 3 M 4175 -4 V 3 M 4176 -4 V 2 M 4177 -3 V 3 M 4178 -3 V 3 M 4179 -3 V 3 M 4180 -3 V 3 M 4181 -3 V 3 M 4182 -3 V 3 M 4183 -5 V 3 M 4184 -5 V 2 M 4185 -3 V 3 M 4186 -3 V 2 M 4187 -3 V 3 M 4188 -3 V 3 M 4189 -3 V 3 M 4190 -4 V 3 M 4191 -3 V 2 M 4192 -4 V 3 M 4193 -3 V 3 M 4194 -4 V 2 M 4195 -4 V 2 M 4196 -4 V 3 M 4197 -4 V 2 M 4198 -3 V 3 M 4199 -3 V 2 M 4200 -5 V 3 M 4201 -3 V 2 M 4202 -3 V 3 M 4203 -3 V 2 M 4204 -4 V 2 M 4205 -3 V 2 M 4206 -4 V 3 M 4207 -4 V 2 M 4208 -3 V 3 M 4209 -3 V 3 M 4210 -4 V 2 M 4211 -3 V 2 M 4212 -3 V 3 M 4213 -3 V 3 M 4214 -3 V 2 M 4215 -4 V 3 M 4216 -4 V 3 M 4217 -4 V 3 M 4218 -4 V 3 M 4219 -4 V 2 M 4220 -3 V 2 M 4221 -4 V 3 M 4222 -5 V 3 M 4223 -4 V 3 M 4224 -3 V 3 M 4225 -3 V 2 M 4226 -4 V 2 M 4227 -3 V 2 M 4228 -3 V 2 M 4229 -3 V 2 M 4230 -4 V 3 M 4231 -4 V 3 M 4232 -4 V 3 M 4233 -4 V 3 M 4234 -4 V 3 M 4235 -3 V 2 M 4236 -3 V 2 M 4237 -4 V 2 M 4238 -4 V 3 M 4239 -5 V 5 M 4240 -4 V 4 M 4241 -3 V 2 M 4242 -4 V 3 M 4243 -3 V 2 M 4244 -45 V 18 M 4245 -30 V 35 M 4246 -39 V 53 M 4247 -70 V 76 M 4248 -39 V 36 M 4249 -34 V 23 M 4250 -30 V 28 M 4251 -89 V 53 M 4252 -102 V 98 M 4253 -86 V 74 M 4254 -73 V 79 M 4255 -57 V 36 M 4256 -25 V 31 M 4257 -21 V 29 M 4258 -45 V 39 M 4259 -26 V 42 M 4260 -60 V 48 M 4261 -76 V 58 M 4262 -59 V 47 M 4263 -33 V 62 M 4264 -27 V 36 M 4265 -29 V 19 M 4266 -24 V 34 M 4267 -51 V 43 M 4268 -64 V 60 M 4269 -1539 V 1669 M 4270 -1741 V 1829 M 4271 -1185 V 1097 M 4272 -2020 V 1379 M 4273 -1676 V 1362 M 4274 -1101 V 774 M 4275 -605 V 740 M 4276 -761 V 731 M 4277 -605 V 569 M 4278 -695 V 1192 M 4279 -1897 V 2039 M 4280 -1478 V 1565 M 4281 -1068 V 3776 M 4282 -2481 V 1025 M 4283 -2947 V 5417 M 4284 -2943 V 3134 M 4285 -2505 V 7117 M 4286 -1697 V 3266 M 4287 -3221 V 4569 M 4288 -2044 V 3356 M 4289 -2113 V 1919 M 4290 -2122 V 3548 M 4291 -2509 V 2393 M 4292 -1649 V 2797 M 4293 -1926 V 1660 M 4294 -1665 V 3111 M 4295 -2177 V 1660 M 4296 -1873 V 1908 M 4297 -1221 V 1509 M 4298 -1112 V 1088 M 4299 -830 V 1020 M 4300 -963 V 1350 M 4301 -899 V 941 M 4302 -886 V 811 M 4303 -1121 V 798 M 4304 -965 V 855 M 4305 -868 V 853 M 4306 -595 V 545 M 4307 -889 V 651 M 4308 -715 V 990 M 4309 -1113 V 1087 M 4310 -675 V 1257 M 4311 -1223 V 554 M 4312 -1981 V 2766 M 4313 -1734 V 831 M 4314 -1325 V 2167 M 4315 -1327 V 916 M 4316 -1466 V 2300 M 4317 -981 V 1610 M 4318 -2141 V 2959 M 4319 -1084 V 564 M 4320 -1550 V 2497 M 4321 -1255 V 480 M 4322 -1403 V 2275 M 4323 -729 V 318 M 4324 -1827 V 2392 M 4325 -1016 V 1063 M 4326 -1238 V 2398 M 4327 -1038 V 1318 M 4328 -1172 V 2146 M 4329 -1536 V 882 M 4330 -983 V 1037 M 4331 -1414 V 1131 M 4332 -1254 V 1426 M 4333 -741 V 994 M 4334 -667 V 1552 M 4335 -1324 V 1215 M 4336 -833 V 1901 M 4337 -2250 V 1418 M 4338 -782 V 1177 M 4339 -996 V 1180 M 4340 -291 V 374 M 4341 -621 V 606 M 4342 -392 V 233 M 4343 -204 V 210 M 4344 -129 V 150 M 4345 -178 V 139 M 4346 -296 V 250 M 4347 -324 V 209 M 4348 -758 V 752 M 4349 -725 V 619 M 4350 -447 V 368 M 4351 -302 V 311 M 4352 -331 V 324 M 4353 -2615 V 3376 M 4354 -5854 V 5129 M 4355 -2062 V 3247 M 4356 -2043 V 1498 M 4357 -1151 V 1467 M 4358 -2006 V 3361 M 4359 -2127 V 1449 M 4360 -3096 V 6195 M 4361 -3745 V 3919 M 4362 -2990 V 2062 M 4363 -4527 V 4886 M 4364 -2710 V 4116 M 4365 -3178 V 2419 M 4366 -3647 V 4373 M 4367 -2216 V 2745 M 4368 -2552 V 1960 M 4369 -2760 V 4622 M 4370 -3365 V 3017 M 4371 -2525 V 2878 M 4372 -1728 V 1356 M 4373 -2210 V 3680 M 4374 -2309 V 1725 M 4375 -2852 V 5035 M 4376 -3221 V 1440 M 4377 -1638 V 3057 M 4378 -1392 V 819 M 4379 -788 V 2375 M 4380 -1357 V 1404 M 4381 -1188 V 2724 M 4382 -1477 V 958 M 4383 -1369 V 2697 M 4384 -1178 V 2197 M 4385 -1735 V 2808 M 4386 -1557 V 2866 M 4387 -1593 V 1624 M 4388 -2573 V 3648 M 4389 -1702 V 1856 M 4390 -1947 V 3205 M 4391 -1840 V 1131 M 4392 -1461 V 2500 M 4393 -1395 V 1209 M 4394 -936 V 1311 M 4395 -894 V 1228 M 4396 -851 V 1992 M 4397 -1121 V 1399 M 4398 -832 V 1369 M 4399 -734 V 1546 M 4400 -960 V 680 M 4401 -1388 V 1527 M 4402 -1353 V 800 M 4403 -2027 V 2472 M 4404 -1808 V 1372 M 4405 -1596 V 3168 M 4406 -1804 V 1144 M 4407 -1834 V 3429 M 4408 -2017 V 1379 M 4409 -1746 V 2117 M 4410 -1129 V 990 M 4411 -520 V 991 M 4412 -352 V 630 M 4413 -613 V 733 M 4414 -497 V 477 M 4415 -518 V 413 M 4416 -410 V 358 M 4417 -447 V 408 M 4418 -422 V 314 M 4419 -328 V 364 M 4420 -277 V 196 M 4421 -507 V 464 M 4422 -197 V 110 M 4423 -400 V 365 M 4424 -1100 V 1093 M 4425 -249 V 328 M 4426 -292 V 231 M 4427 -219 V 221 M 4428 -95 V 86 M 4429 -112 V 79 M 4430 -59 V 96 M 4431 -229 V 103 M 4432 -1398 V 727 M 4433 -1421 V 1845 M 4434 -1753 V 991 M 4435 -1225 V 2772 M 4436 -2506 V 1695 M 4437 -2355 V 3649 M 4438 -2039 V 3061 M 4439 -1896 V 4954 M 4440 -3394 V 4956 M 4441 -2206 V 2178 M 4442 -1491 V 4144 M 4443 -1446 V 1382 M 4444 -1809 V 3021 M 4445 -1709 V 1459 M 4446 -2244 V 3766 M 4447 -2016 V 1380 M 4448 -1350 V 768 M 4449 -1511 V 2070 M 4450 -1318 V 730 M 4451 -1429 V 1584 M 4452 -959 V 672 M 4453 -498 V 1267 M 4454 -599 V 1232 M 4455 -743 V 596 M 4456 -744 V 985 M 4457 -983 V 816 M 4458 -931 V 1276 M 4459 -909 V 857 M 4460 -963 V 880 M 4461 -648 V 878 M 4462 -255 V 330 M 4463 -165 V 205 M 4464 -79 V 93 M 4465 -216 V 250 M 4466 -182 V 197 M 4467 -151 V 133 M 4468 -138 V 108 M 4469 -76 V 135 M 4470 -97 V 118 M 4471 -51 V 58 M 4472 -85 V 43 M 4473 -44 V 61 M 4474 -44 V 52 M 4475 -44 V 27 M 4476 -32 V 39 M 4477 -33 V 39 M 4478 -51 V 38 M 4479 -53 V 38 M 4480 -21 V 22 M 4481 -64 V 64 M 4482 -48 V 55 M 4483 -46 V 54 M 4484 -70 V 72 M 4485 -47 V 58 M 4486 -51 V 34 M 4487 -38 V 59 M 4488 -63 V 57 M 4489 -48 V 33 M 4490 -42 V 41 M 4491 -21 V 28 M 4492 -60 V 47 M 4493 -53 V 41 M 4494 -79 V 96 M 4495 -102 V 67 M 4496 -139 V 142 M 4497 -128 V 148 M 4498 -99 V 59 M 4499 -43 V 47 M 4500 -45 V 52 M 4501 -51 V 37 M 4502 -36 V 29 M 4503 -34 V 37 M 4504 -41 V 40 M 4505 -27 V 27 M 4506 -51 V 64 M 4507 -35 V 56 M 4508 -36 V 43 M 4509 -67 V 39 M 4510 -58 V 83 M 4511 -27 V 49 M 4512 -45 V 47 M 4513 -60 V 60 M 4514 -36 V 37 M 4515 -47 V 41 M 4516 -40 V 28 M 4517 -34 V 30 M 4518 -33 V 35 M 4519 -36 V 54 M 4520 -49 V 44 M 4521 -48 V 41 M 4522 -47 V 31 M 4523 -40 V 34 M 4524 -53 V 51 M 4525 -40 V 51 M 4526 -46 V 27 M 4527 -44 V 58 M 4528 -70 V 91 M 4529 -80 V 66 M 4530 -68 V 52 M 4531 -75 V 91 M 4532 -97 V 74 M 4533 -74 V 72 M 4534 -85 V 71 M 4535 -104 V 112 M 4536 -137 V 144 M 4537 -127 V 92 M 4538 -161 V 130 M 4539 -98 V 112 M 4540 -135 V 149 M 4541 -144 V 162 M 4542 -169 V 150 M 4543 -152 V 143 M 4544 -94 V 117 M 4545 -114 V 108 M 4546 -95 V 94 M 4547 -7 V 9 M 4548 -7 V 4 M 4549 -4 V 6 M 4550 -5 V 4 M 4551 -4 V 3 M 4552 -4 V 4 M 4553 -4 V 4 M 4554 -5 V 3 M 4555 -12 V 67 M 4556 -58 V 58 M 4557 -55 V 43 M 4558 -54 V 63 M 4559 -45 V 59 M 4560 -48 V 47 M 4561 -68 V 56 M 4562 -79 V 68 M 4563 -52 V 62 M 4564 -62 V 37 M 4565 -56 V 32 M 4566 -49 V 59 M 4567 -37 V 44 M 4568 -63 V 64 M 4569 -108 V 97 M 4570 -103 V 121 M 4571 -135 V 143 M 4572 -239 V 224 M 4573 -290 V 259 M 4574 -179 V 189 M 4575 -99 V 124 M 4576 -162 V 130 M 4577 -117 V 118 M 4578 -156 V 197 M 4579 -201 V 188 M 4580 -237 V 154 M 4581 -222 V 235 M 4582 -147 V 128 M 4583 -189 V 132 M 4584 -112 V 125 M 4585 -77 V 68 M 4586 -84 V 79 M 4587 -86 V 45 M 4588 -47 V 62 M 4589 -32 V 33 M 4590 -53 V 38 M 4591 -37 V 72 M 4592 -33 V 33 M 4593 -37 V 39 M 4594 -40 V 35 M 4595 -32 V 40 M 4596 -30 V 31 M 4597 -33 V 30 M 4598 -25 V 35 M 4599 -43 V 35 M 4600 -60 V 44 M 4601 -101 V 83 M 4602 -113 V 99 M 4603 -160 V 143 M 4604 -153 V 172 M 4605 -108 V 128 M 4606 -108 V 110 M 4607 -65 V 72 M 4608 -70 V 62 M 4609 -78 V 56 M 4610 -122 V 134 M 4611 -118 V 77 M 4612 -108 V 73 M 4613 -69 V 42 M 4614 -65 V 72 M 4615 -91 V 106 M 4616 -80 V 170 M 4617 -108 V 116 M 4618 -64 V 58 M 4619 -50 V 54 M 4620 -60 V 44 M 4621 -68 V 35 M 4622 -58 V 63 M 4623 -52 V 62 M 4624 -67 V 53 M 4625 -62 V 50 M 4626 -58 V 56 M 4627 -87 V 87 M 4628 -140 V 102 M 4629 -65 V 104 M 4630 -51 V 54 M 4631 -55 V 33 M 4632 -24 V 40 M 4633 -40 V 44 M 4634 -51 V 57 M 4635 -60 V 46 M 4636 -85 V 85 M 4637 -332 V 541 M 4638 -473 V 727 M 4639 -2585 V 1365 M 4640 -3751 V 5819 M 4641 -2555 V 906 M 4642 -7045 V 8031 M 4643 -3705 V 10324 M 4644 -8907 V 5894 M 4645 -10067 V 11651 M 4646 -4528 V 4217 M 4647 -10309 V 10573 M 4648 -4904 V 10926 M 4649 -10599 V 5593 M 4650 -9933 V 11087 M 4651 -3499 V 4060 M 4652 -7357 V 7535 M 4653 -3027 V 4448 M 4654 -3637 V 3014 M 4655 -2462 V 2787 M 4656 -1076 V 1727 M 4657 -2155 V 1124 M 4658 -983 V 1234 M 4659 -1636 V 1025 M 4660 -992 V 707 M 4661 -573 V 796 M 4662 -603 V 686 M 4663 -1391 V 1549 M 4664 -1537 V 2291 M 4665 -1446 V 1514 M 4666 -2899 V 4177 M 4667 -2127 V 1705 M 4668 -1799 V 1446 M 4669 -2543 V 1964 M 4670 -2054 V 2031 M 4671 -1278 V 1356 M 4672 -1605 V 1756 M 4673 -1652 V 2462 M 4674 -2966 V 2276 M 4675 -1933 V 3910 M 4676 -3812 V 5648 M 4677 -3531 V 1315 M 4678 -5009 V 8492 M 4679 -6572 V 10589 M 4680 -6892 V 2633 M 4681 -6859 V 11136 M 4682 -4609 V 11706 M 4683 -7849 V 1563 M 4684 -8055 V 11483 M 4685 -3230 V 6882 M 4686 -4796 V 6968 M 4687 -2098 V 3415 M 4688 -2234 V 3631 M 4689 -2805 V 1977 M 4690 -2823 V 3360 M 4691 -2943 V 1749 M 4692 -449 V 2304 M 4693 -949 V 1441 M 4694 -1594 V 881 M 4695 -516 V 1272 M 4696 -1368 V 1633 M 4697 -1138 V 996 M 4698 -1471 V 1192 M 4699 -1943 V 631 M 4700 -2031 V 3081 M 4701 -1159 V 4229 M 4702 -2640 V 4124 M 4703 -2252 V 3633 M 4704 -1989 V 1388 M 4705 -2393 V 2981 M 4706 -1636 V 1854 M 4707 -1478 V 2076 M 4708 -2565 V 5211 M 4709 -3425 V 2508 M 4710 -3199 V 4199 M 4711 -2174 V 1973 M 4712 -1446 V 1579 M 4713 -1651 V 1237 M 4714 -1009 V 738 M 4715 -1258 V 699 M 4716 -1275 V 2177 M 4717 -865 V 1230 M 4718 -1246 V 2167 M 4719 -1016 V 729 M 4720 -1211 V 1437 M 4721 -1321 V 1747 M 4722 -1683 V 1941 M 4723 -1078 V 1341 M 4724 -1123 V 781 M 4725 -1246 V 1827 M 4726 -1094 V 485 M 4727 -1886 V 2350 M 4728 -1719 V 1267 M 4729 -1939 V 1921 M 4730 -944 V 574 M 4731 -690 V 1217 M 4732 -1160 V 475 M 4733 -815 V 1722 M 4734 -1764 V 693 M 4735 -2184 V 2969 M 4736 -1175 V 969 M 4737 -1052 V 2145 M 4738 -720 V 1056 M 4739 -449 V 783 M 4740 -1680 V 1466 M 4741 -1593 V 1179 M 4742 -1320 V 915 M 4743 -1361 V 2419 M 4744 -889 V 1195 M 4745 -1486 V 1976 M 4746 -806 V 1135 M 4747 -1461 V 1416 M 4748 -860 V 659 M 4749 -740 V 594 M 4750 -562 V 799 M 4751 -866 V 515 M 4752 -955 V 1367 M 4753 -401 V 263 M 4754 -532 V 844 M 4755 -480 V 333 M 4756 -657 V 774 M 4757 -716 V 350 M 4758 -229 V 479 M 4759 -350 V 433 M 4760 -159 V 204 M 4761 -187 V 193 M 4762 -163 V 237 M 4763 -343 V 376 M 4764 -499 V 465 M 4765 -462 V 582 M 4766 -594 V 483 M 4767 -505 V 456 M 4768 -313 V 373 M 4769 -317 V 255 M 4770 -229 V 321 M 4771 -618 V 439 M 4772 -480 V 720 M 4773 -439 V 344 M 4774 -283 V 312 M 4775 -251 V 281 M 4776 -575 V 796 M 4777 -523 V 628 M 4778 -514 V 278 M 4779 -567 V 569 M 4780 -325 V 210 M 4781 -707 V 545 M 4782 -291 V 264 M 4783 -330 V 384 M 4784 -327 V 306 M 4785 -444 V 167 M 4786 -430 V 551 M 4787 -669 V 579 M 4788 -613 V 330 M 4789 -346 V 281 M 4790 -123 V 224 M 4791 -111 V 102 M 4792 -88 V 88 M 4793 -66 V 63 M 4794 -60 V 66 M 4795 -98 V 59 M 4796 -93 V 106 M 4797 -83 V 123 M 4798 -172 V 222 M 4799 -175 V 148 M 4800 -222 V 240 M 4801 -300 V 196 M 4802 -297 V 315 M 4803 -391 V 676 M 4804 -313 V 444 M 4805 -194 V 175 M 4806 -190 V 305 M 4807 -246 V 322 M 4808 -207 V 181 M 4809 -196 V 177 M 4810 -324 V 506 M 4811 -776 V 1419 M 4812 -2195 V 1675 M 4813 -2327 V 1867 M 4814 -1391 V 1406 M 4815 -2615 V 4460 M 4816 -2686 V 1640 M 4817 -2497 V 3061 M 4818 -2995 V 1176 M 4819 -1433 V 2842 M 4820 -2060 V 1451 M 4821 -853 V 1232 M 4822 -2435 V 2391 M 4823 -2096 V 1145 M 4824 -1769 V 1275 M 4825 -919 V 1007 M 4826 -1468 V 1517 M 4827 -1860 V 3133 M 4828 -1317 V 1452 M 4829 -802 V 844 M 4830 -1193 V 2147 M 4831 -1299 V 831 M 4832 -1091 V 643 M 4833 -777 V 1171 M 4834 -868 V 795 M 4835 -1410 V 1265 M 4836 -1208 V 968 M 4837 -1395 V 1712 M 4838 -1845 V 1697 M 4839 -1606 V 2464 M 4840 -1940 V 1964 M 4841 -1837 V 1213 M 4842 -1121 V 1343 M 4843 -789 V 1031 M 4844 -876 V 1032 M 4845 -541 V 776 M 4846 -636 V 480 M 4847 -695 V 674 M 4848 -354 V 513 M 4849 -534 V 429 M 4850 -302 V 519 M 4851 -360 V 298 M 4852 -247 V 443 M 4853 -177 V 208 M 4854 -122 V 127 M 4855 -65 V 59 M 4856 -42 V 53 M 4857 -51 V 39 M 4858 -24 V 78 M 4859 -94 V 63 M 4860 -69 V 64 M 4861 -45 V 45 M 4862 -43 V 49 M 4863 -33 V 54 M 4864 -64 V 81 M 4865 -66 V 68 M 4866 -37 V 32 M 4867 -52 V 37 M 4868 -45 V 57 M 4869 -46 V 61 M 4870 -42 V 58 M 4871 -42 V 42 M 4872 -52 V 51 M 4873 -59 V 41 M 4874 -45 V 45 M 4875 -26 V 51 M 4876 -70 V 47 M 4877 -52 V 58 M 4878 -51 V 28 M 4879 -18 V 33 M 4880 -49 V 42 M 4881 -33 V 35 M 4882 -79 V 51 M 4883 -43 V 58 M 4884 -84 V 101 M 4885 -80 V 61 M 4886 -51 V 29 M 4887 -40 V 31 M 4888 -42 V 46 M 4889 -55 V 63 M 4890 -48 V 32 M 4891 -59 V 77 M 4892 -39 V 28 M 4893 -71 V 36 M 4894 -68 V 63 M 4895 -47 V 41 M 4896 -47 V 44 M 4897 -62 V 57 M 4898 -28 V 38 M 4899 -39 V 46 M 4900 -33 V 28 M 4901 -30 V 41 M 4902 -46 V 52 M 4903 -44 V 61 M 4904 -62 V 57 M 4905 -44 V 34 M 4906 -55 V 58 M 4907 -44 V 67 M 4908 -64 V 48 M 4909 -67 V 62 M 4910 -41 V 83 M 4911 -91 V 118 M 4912 -269 V 327 M 4913 -528 V 430 M 4914 -634 V 534 M 4915 -531 V 608 M 4916 -682 V 716 M 4917 -842 V 873 M 4918 -644 V 752 M 4919 -1092 V 869 M 4920 -1189 V 1105 M 4921 -1396 V 1312 M 4922 -1403 V 1353 M 4923 -2111 V 2373 M 4924 -1578 V 1859 M 4925 -1752 V 2365 M 4926 -1766 V 1694 M 4927 -2161 V 2333 M 4928 -1752 V 1764 M 4929 -1711 V 1384 M 4930 -2397 V 1962 M 4931 -946 V 1321 M 4932 -1124 V 1444 M 4933 -1106 V 1103 M 4934 -1653 V 1022 M 4935 -3569 V 4786 M 4936 -3511 V 8082 M 4937 -4171 V 1615 M 4938 -7515 V 10558 M 4939 -3147 V 9591 M 4940 -5213 V 7011 M 4941 -5370 V 7982 M 4942 -1890 V 4470 M 4943 -5295 V 7282 M 4944 -3401 V 5312 M 4945 -4123 V 2757 M 4946 -4045 V 5034 M 4947 -2963 V 4017 M 4948 -2008 V 2914 M 4949 -2678 V 3426 M 4950 -3105 V 3373 M 4951 -1532 V 952 M 4952 -1172 V 1256 M 4953 -1605 V 1375 M 4954 -1811 V 1842 M 4955 -2058 V 1624 M 4956 -1462 V 1854 M 4957 -1272 V 1442 M 4958 -1274 V 1485 M 4959 -1100 V 1370 M 4960 -1277 V 1524 M 4961 -884 V 899 M 4962 -896 V 840 M 4963 -741 V 854 M 4964 -534 V 529 M 4965 -569 V 547 M 4966 -333 V 340 M 4967 -333 V 290 M 4968 -197 V 198 M 4969 -158 V 135 M 4970 -169 V 158 M 4971 -87 V 82 M 4972 -139 V 100 M 4973 -187 V 202 M 4974 -400 V 415 M 4975 -289 V 268 M 4976 -299 V 459 M 4977 -368 V 449 M 4978 -713 V 331 M 4979 -2438 V 1642 M 4980 -1863 V 5345 M 4981 -2723 V 4438 M 4982 -2224 V 4948 M 4983 -2313 V 4745 M 4984 -3044 V 2594 M 4985 -2869 V 4868 M 4986 -4035 V 2934 M 4987 -4598 V 7745 M 4988 -2656 V 2731 M 4989 -3094 V 7394 M 4990 -2082 V 2610 M 4991 -2782 V 4363 M 4992 -2709 V 4073 M 4993 -3128 V 5031 M 4994 -1931 V 1336 M 4995 -3051 V 3813 M 4996 -2144 V 2684 M 4997 -3672 V 7015 M 4998 -1496 V 1343 M 4999 -2120 V 1645 M 5000 -1076 V 1183 M 5001 -1206 V 1332 M 5002 -806 V 1070 M 5003 -1313 V 1691 M 5004 -888 V 937 M 5005 -959 V 1965 M 5006 -1770 V 1662 M 5007 -1086 V 2238 M 5008 -1662 V 1135 M 5009 -1785 V 911 M 5010 -1963 V 2841 M 5011 -1253 V 1081 M 5012 -2593 V 3525 M 5013 -516 V 948 M 5014 -1197 V 1485 M 5015 -1131 V 952 M 5016 -1181 V 1551 M 5017 -1281 V 1023 M 5018 -935 V 477 M 5019 -780 V 901 M 5020 -603 V 491 M 5021 -994 V 789 M 5022 -961 V 837 M 5023 -539 V 1146 M 5024 -1085 V 538 M 5025 -1389 V 2069 M 5026 -1315 V 687 M 5027 -1362 V 2504 M 5028 -1280 V 598 M 5029 -1595 V 2784 M 5030 -693 V 561 M 5031 -2044 V 1959 M 5032 -1695 V 1285 M 5033 -3150 V 4313 M 5034 -1979 V 2283 M 5035 -2012 V 2410 M 5036 -1712 V 2334 M 5037 -2044 V 3518 M 5038 -1799 V 730 M 5039 -1716 V 2024 M 5040 -1754 V 1988 M 5041 -2572 V 3168 M 5042 -1427 V 1325 M 5043 -1411 V 1351 M 5044 -495 V 1085 M 5045 -1763 V 1654 M 5046 -1135 V 1097 M 5047 -951 V 1867 M 5048 -2422 V 2055 M 5049 -860 V 664 M 5050 -1093 V 817 M 5051 -1339 V 1305 M 5052 -1898 V 2013 M 5053 -889 V 1523 M 5054 -1545 V 1610 M 5055 -923 V 891 M 5056 -1981 V 1775 M 5057 -1378 V 1645 M 5058 -758 V 1035 M 5059 -225 V 232 M 5060 -305 V 361 M 5061 -137 V 184 M 5062 -129 V 95 M 5063 -83 V 119 M 5064 -111 V 129 M 5065 -66 V 106 M 5066 -73 V 61 M 5067 -82 V 74 M 5068 -190 V 238 M 5069 -249 V 340 M 5070 -535 V 602 M 5071 -600 V 521 M 5072 -1343 V 2050 M 5073 -1489 V 1001 M 5074 -2378 V 2503 M 5075 -2512 V 2255 M 5076 -1377 V 3712 M 5077 -3416 V 3130 M 5078 -2520 V 4524 M 5079 -4509 V 4736 M 5080 -3347 V 4455 M 5081 -4127 V 4388 M 5082 -3306 V 4587 M 5083 -3924 V 4692 M 5084 -3975 V 4028 M 5085 -2241 V 2818 M 5086 -3649 V 3052 M 5087 -2257 V 2811 M 5088 -3250 V 1814 M 5089 -2217 V 4030 M 5090 -3128 V 3905 M 5091 -2909 V 3048 M 5092 -3322 V 5074 M 5093 -3005 V 2002 M 5094 -3134 V 6225 M 5095 -3031 V 2053 M 5096 -3047 V 5798 M 5097 -2754 V 1881 M 5098 -3027 V 6068 M 5099 -3392 V 2279 M 5100 -2161 V 4345 M 5101 -2773 V 1656 M 5102 -2078 V 1826 M 5103 -4130 V 3802 M 5104 -1827 V 3109 M 5105 -2723 V 1739 M 5106 -1539 V 1787 M 5107 -668 V 851 M 5108 -1481 V 780 M 5109 -1415 V 1553 M 5110 -1174 V 1435 M 5111 -1073 V 806 M 5112 -716 V 636 M 5113 -569 V 839 M 5114 -644 V 797 M 5115 -735 V 357 M 5116 -365 V 175 M 5117 -197 V 349 M 5118 -120 V 158 M 5119 -77 V 62 M 5120 -73 V 63 M 5121 -57 V 56 M 5122 -52 V 54 M 5123 -35 V 63 M 5124 -83 V 72 M 5125 -46 V 35 M 5126 -41 V 39 M 5127 -47 V 35 M 5128 -38 V 22 M 5129 -38 V 32 M 5130 -39 V 38 M 5131 -76 V 42 M 5132 -66 V 40 M 5133 -40 V 57 M 5134 -38 V 37 M 5135 -51 V 38 M 5136 -34 V 29 M 5137 -51 V 33 M 5138 -72 V 41 M 5139 -70 V 42 M 5140 -59 V 50 M 5141 -82 V 44 M 5142 -86 V 46 M 5143 -53 V 46 M 5144 -66 V 54 M 5145 -68 V 39 M 5146 -46 V 40 M 5147 -35 V 35 M 5148 -38 V 39 M 5149 -43 V 35 M 5150 -42 V 46 M 5151 -63 V 57 M 5152 -58 V 56 M 5153 -38 V 51 M 5154 -59 V 73 M 5155 -54 V 44 M 5156 -34 V 40 M 5157 -65 V 43 M 5158 -31 V 38 M 5159 -39 V 31 M 5160 -36 V 24 M 5161 -30 V 26 M 5162 -30 V 32 M 5163 -62 V 57 M 5164 -51 V 34 M 5165 -22 V 32 M 5166 -47 V 55 M 5167 -46 V 44 M 5168 -51 V 53 M 5169 -37 V 27 M 5170 -34 V 28 M 5171 -41 V 33 M 5172 -63 V 40 M 5173 -45 V 45 M 5174 -52 V 36 M 5175 -56 V 32 M 5176 -33 V 21 M 5177 -24 V 36 M 5178 -47 V 43 M 5179 -45 V 44 M 5180 -33 V 37 M 5181 -50 V 44 M 5182 -53 V 26 M 5183 -39 V 52 M 5184 -36 V 42 M 5185 -25 V 38 M 5186 -23 V 29 M 5187 -39 V 21 M 5188 -24 V 26 M 5189 -50 V 36 M 5190 -46 V 26 M 5191 -31 V 34 M 5192 -40 V 41 M 5193 -73 V 40 M 5194 -53 V 54 M 5195 -58 V 53 M 5196 -71 V 76 M 5197 -79 V 56 M 5198 -43 V 50 M 5199 -41 V 45 M 5200 -39 V 31 M 5201 -17 V 12 M 5202 -29 V 22 M 5203 -30 V 24 M 5204 -37 V 31 M 5205 -26 V 37 M 5206 -59 V 62 M 5207 -53 V 65 M 5208 -37 V 39 M 5209 -39 V 37 M 5210 -69 V 56 M 5211 -41 V 3 M 5212 -4 V 4 M 5213 -3 V 3 M 5214 -4 V 3 M 5215 -3 V 4 M 5216 -3 V 2 M 5217 -4 V 3 M 5218 -3 V 3 M 5219 -4 V 3 M 5220 -3 V 2 M 5221 -3 V 3 M 5222 -4 V 3 M 5223 -4 V 3 M 5224 -4 V 3 M 5225 -4 V 3 M 5226 -3 V 3 M 5227 -3 V 2 M 5228 -4 V 3 M 5229 -5 V 3 M 5230 -3 V 3 M 5231 -4 V 3 M 5232 -3 V 3 M 5233 -3 V 2 M 5234 -3 V 2 M 5235 -4 V 2 M 5236 -4 V 2 M 5237 -4 V 2 M 5238 -3 V 3 M 5239 -3 V 2 M 5240 -4 V 2 M 5241 -4 V 2 M 5242 -5 V 3 M 5243 -3 V 2 M 5244 -4 V 4 M 5245 -3 V 2 M 5246 -4 V 3 M 5247 -3 V 2 M 5248 -4 V 2 M 5249 -4 V 3 M 5250 -3 V 3 M 5251 -4 V 3 M 5252 -3 V 2 M 5253 -3 V 3 M 5254 -3 V 2 M 5255 -3 V 2 M 5256 -4 V 3 M 5257 -4 V 3 M 5258 -3 V 2 M 5259 -3 V 2 M 5260 -4 V 3 M 5261 -4 V 3 M 5262 -3 V 2 M 5263 -4 V 3 M 5264 -3 V 2 M 5265 -3 V 3 M 5266 -4 V 3 M 5267 -4 V 3 M 5268 -3 V 2 M 5269 -3 V 3 M 5270 -3 V 2 M 5271 -3 V 2 M 5272 -3 V 3 M 5273 -4 V 3 M 5274 -4 V 2 M 5275 -4 V 4 M 5276 -3 V 3 M 5277 -4 V 3 M 5278 -4 V 3 M 5279 -3 V 3 M 5280 -4 V 3 M 5281 -4 V 4 M 5282 -3 V 2 M 5283 -3 V 2 M 5284 -3 V 3 M 5285 -3 V 2 M 5286 -4 V 3 M 5287 -4 V 2 M 5288 -3 V 2 M 5289 -3 V 2 M 5290 -4 V 3 M 5291 -4 V 3 M 5292 -4 V 3 M 5293 -3 V 3 M 5294 -4 V 2 M 5295 -2 V 2 M 5296 -3 V 3 M 5297 -3 V 3 M 5298 -3 V 2 M 5299 -4 V 3 M 5300 -3 V 3 M 5301 -4 V 4 M 5302 -4 V 4 M 5303 -3 V 2 M 5304 -3 V 3 M 5305 -4 V 3 M 5306 -4 V 3 M 5307 -4 V 3 M 5308 -3 V 2 M 5309 -4 V 3 M 5310 -4 V 2 M 5311 -4 V 3 M 5312 -3 V 2 M 5313 -3 V 2 M 5314 -4 V 3 M 5315 -3 V 2 M 5316 -3 V 3 M 5317 -4 V 2 M 5318 -5 V 3 M 5319 -4 V 4 M 5320 -3 V 2 M 5321 -3 V 2 M 5322 -3 V 2 M 5323 -4 V 3 M 5324 -4 V 3 M 5325 -3 V 3 M 5326 -4 V 3 M 5327 -3 V 2 M 5328 -4 V 3 M 5329 -3 V 2 M 5330 -4 V 3 M 5331 -4 V 3 M 5332 -4 V 3 M 5333 -2 V 2 M 5334 -5 V 3 M 5335 -5 V 4 M 5336 -3 V 2 M 5337 -4 V 3 M 5338 -3 V 2 M 5339 -4 V 2 M 5340 -4 V 3 M 5341 -3 V 2 M 5342 -3 V 2 M 5343 -4 V 2 M 5344 -3 V 3 M 5345 -4 V 3 M 5346 -4 V 2 M 5347 -4 V 3 M 5348 -3 V 2 M 5349 -3 V 3 M 5350 -3 V 2 M 5351 -4 V 2 M 5352 -4 V 4 M 5353 -5 V 3 M 5354 -4 V 3 M 5355 -3 V 2 M 5356 -5 V 3 M 5357 -4 V 2 M 5358 -4 V 2 M 5359 -3 V 2 M 5360 -4 V 3 M 5361 -3 V 2 M 5362 -4 V 2 M 5363 -3 V 2 M 5364 -4 V 3 M 5365 -3 V 2 M 5366 -3 V 2 M 5367 -5 V 3 M 5368 -3 V 2 M 5369 -4 V 2 M 5370 -4 V 2 M 5371 -3 V 2 M 5372 -4 V 3 M 5373 -3 V 2 M 5374 -3 V 2 M 5375 -3 V 3 M 5376 -3 V 3 M 5377 -4 V 2 M 5378 -3 V 2 M 5379 -4 V 3 M 5380 -4 V 2 M 5381 -3 V 3 M 5382 -4 V 3 M 5383 -3 V 3 M 5384 -3 V 2 M 5385 -4 V 3 M 5386 -4 V 3 M 5387 -4 V 2 M 5388 -3 V 2 M 5389 -4 V 3 M 5390 -4 V 2 M 5391 -5 V 2 M 5392 -3 V 2 M 5393 -4 V 3 M 5394 -3 V 2 M 5395 -3 V 2 M 5396 -4 V 3 M 5397 -4 V 2 M 5398 -4 V 3 M 5399 -3 V 3 M 5400 -4 V 3 M 5401 -3 V 3 M 5402 -4 V 2 M 5403 -3 V 2 M 5404 -3 V 3 M 5405 -4 V 2 M 5406 -3 V 3 M 5407 -4 V 2 M 5408 -4 V 2 M 5409 -4 V 3 M 5410 -3 V 2 M 5411 -4 V 2 M 5412 -3 V 3 M 5413 -3 V 3 M 5414 -3 V 2 M 5415 -4 V 4 M 5416 -3 V 2 M 5417 -4 V 3 M 5418 -4 V 2 M 5419 -3 V 3 M 5420 -4 V 3 M 5421 -3 V 2 M 5422 -4 V 3 M 5423 -3 V 2 M 5424 -3 V 3 M 5425 -3 V 2 M 5426 -3 V 2 M 5427 -5 V 4 M 5428 -4 V 3 M 5429 -3 V 2 M 5430 -3 V 2 M 5431 -3 V 2 M 5432 -3 V 3 M 5433 -4 V 3 M 5434 -3 V 2 M 5435 -4 V 3 M 5436 -4 V 3 M 5437 -3 V 2 M 5438 -4 V 3 M 5439 -4 V 3 M 5440 -3 V 2 M 5441 -3 V 2 M 5442 -4 V 3 M 5443 -4 V 3 M 5444 -3 V 2 M 5445 -4 V 3 M 5446 -3 V 3 M 5447 -3 V 3 M 5448 -3 V 2 M 5449 -3 V 3 M 5450 -5 V 4 M 5451 -4 V 3 M 5452 -4 V 2 M 5453 -4 V 3 M 5454 -3 V 2 M 5455 -5 V 2 M 5456 -3 V 2 M 5457 -3 V 3 M 5458 -3 V 2 M 5459 -4 V 3 M 5460 -4 V 3 M 5461 -4 V 3 M 5462 -4 V 3 M 5463 -4 V 4 M 5464 -4 V 4 M 5465 -3 V 2 M 5466 -4 V 2 M 5467 -4 V 3 M 5468 -3 V 2 M 5469 -4 V 3 M 5470 -3 V 3 M 5471 -3 V 2 M 5472 -4 V 2 M 5473 -4 V 4 M 5474 -4 V 3 M 5475 -3 V 2 M 5476 -3 V 3 M 5477 -4 V 3 M 5478 -4 V 3 M 5479 -4 V 2 M 5480 -4 V 3 M 5481 -3 V 3 M 5482 -4 V 3 M 5483 -4 V 3 M 5484 -3 V 2 M 5485 -3 V 2 M 5486 -3 V 3 M 5487 -4 V 3 M 5488 -4 V 2 M 5489 -3 V 2 M 5490 -3 V 3 M 5491 -4 V 2 M 5492 -4 V 2 M 5493 -4 V 4 M 5494 -4 V 3 M 5495 -3 V 2 M 5496 -4 V 3 M 5497 -4 V 3 M 5498 -4 V 2 M 5499 -3 V 3 M 5500 -4 V 4 M 5501 -4 V 2 M 5502 -4 V 2 M 5503 -4 V 3 M 5504 -4 V 3 M 5505 -4 V 3 M 5506 -4 V 3 M 5507 -3 V 3 M 5508 -3 V 2 M 5509 -3 V 2 M 5510 -4 V 3 M 5511 -4 V 3 M 5512 -4 V 2 M 5513 -4 V 3 M 5514 -3 V 2 M 5515 -4 V 3 M 5516 -3 V 3 M 5517 -4 V 3 M 5518 -4 V 3 M 5519 -3 V 2 M 5520 -3 V 3 M 5521 -3 V 3 M 5522 -4 V 3 M 5523 -4 V 3 M 5524 -4 V 3 M 5525 -4 V 3 M 5526 -4 V 3 M 5527 -4 V 3 M 5528 -3 V 3 M 5529 -3 V 2 M 5530 -5 V 5 M 5531 -4 V 3 M 5532 -3 V 3 M 5533 -4 V 3 M 5534 -3 V 2 M 5535 -5 V 4 M 5536 -4 V 3 M 5537 -5 V 3 M 5538 -3 V 3 M 5539 -4 V 2 M 5540 -3 V 3 M 5541 -3 V 2 M 5542 -3 V 2 M 5543 -4 V 3 M 5544 -4 V 3 M 5545 -4 V 2 M 5546 -3 V 3 M 5547 -3 V 2 M 5548 -4 V 4 M 5549 -3 V 2 M 5550 -4 V 3 M 5551 -3 V 3 M 5552 -5 V 4 M 5553 -4 V 3 M 5554 -4 V 3 M 5555 -4 V 4 M 5556 -4 V 2 M 5557 -5 V 3 M 5558 -3 V 3 M 5559 -4 V 4 M 5560 -4 V 3 M 5561 -3 V 2 M 5562 -3 V 3 M 5563 -3 V 3 M 5564 -3 V 3 M 5565 -3 V 2 M 5566 -4 V 3 M 5567 -5 V 3 M 5568 -4 V 3 M 5569 -5 V 3 M 5570 -4 V 3 M 5571 -4 V 2 M 5572 -5 V 2 M 5573 -3 V 3 M 5574 -4 V 3 M 5575 -4 V 3 M 5576 -3 V 2 M 5577 -3 V 2 M 5578 -4 V 3 M 5579 -3 V 3 M 5580 -4 V 4 M 5581 -4 V 2 M 5582 -3 V 3 M 5583 -3 V 2 M 5584 -3 V 2 M 5585 -4 V 3 M 5586 -4 V 4 M 5587 -3 V 3 M 5588 -3 V 2 M 5589 -5 V 3 M 5590 -3 V 2 M 5591 -3 V 2 M 5592 -3 V 2 M 5593 -4 V 3 M 5594 -4 V 4 M 5595 -4 V 3 M 5596 -54 V 39 M 5597 -52 V 52 M 5598 -58 V 78 M 5599 -77 V 84 M 5600 -64 V 68 M 5601 -75 V 70 M 5602 -158 V 103 M 5603 -494 V 602 M 5604 -799 V 933 M 5605 -1015 V 1171 M 5606 -1031 V 900 M 5607 -1334 V 929 M 5608 -1381 V 2048 M 5609 -1896 V 1965 M 5610 -1563 V 1273 M 5611 -1962 V 4959 M 5612 -963 V 1062 M 5613 -2593 V 3419 M 5614 -1479 V 1948 M 5615 -3333 V 5236 M 5616 -2100 V 1191 M 5617 -1820 V 4684 M 5618 -1501 V 852 M 5619 -1773 V 2332 M 5620 -1057 V 1936 M 5621 -1430 V 1317 M 5622 -1426 V 1745 M 5623 -468 V 1124 M 5624 -1336 V 1606 M 5625 -1304 V 640 M 5626 -1018 V 1385 M 5627 -1068 V 1552 M 5628 -889 V 866 M 5629 -1486 V 1515 M 5630 -774 V 1128 M 5631 -1042 V 975 M 5632 -1013 V 871 M 5633 -459 V 518 M 5634 -588 V 571 M 5635 -799 V 822 M 5636 -625 V 777 M 5637 -815 V 806 M 5638 -910 V 776 M 5639 -610 V 1044 M 5640 -1453 V 1106 M 5641 -912 V 1084 M 5642 -1067 V 904 M 5643 -963 V 1072 M 5644 -1350 V 1357 M 5645 -1540 V 2125 M 5646 -1846 V 1492 M 5647 -2620 V 3575 M 5648 -2648 V 1331 M 5649 -3707 V 5930 M 5650 -3189 V 8211 M 5651 -5301 V 1832 M 5652 -7855 V 10458 M 5653 -3527 V 12329 M 5654 -8950 V 6144 M 5655 -10201 V 13823 M 5656 -5504 V 15342 M 5657 -11539 V 14735 M 5658 -12318 V 16609 M 5659 -6758 V 5376 M 5660 -9300 V 12720 M 5661 -5207 V 9944 M 5662 -8532 V 3711 M 5663 -8275 V 8852 M 5664 -6629 V 6057 M 5665 -6261 V 8998 M 5666 -7145 V 9332 M 5667 -3947 V 6244 M 5668 -4900 V 5074 M 5669 -5395 V 2368 M 5670 -3766 V 5283 M 5671 -3421 V 2329 M 5672 -3907 V 4124 M 5673 -1863 V 5424 M 5674 -3370 V 2147 M 5675 -2191 V 5154 M 5676 -2960 V 1603 M 5677 -2436 V 3961 M 5678 -1791 V 1682 M 5679 -3132 V 3880 M 5680 -2948 V 4708 M 5681 -2658 V 5552 M 5682 -3283 V 2404 M 5683 -1516 V 1836 M 5684 -1792 V 4050 M 5685 -2409 V 2204 M 5686 -2305 V 2876 M 5687 -1098 V 1038 M 5688 -1885 V 3729 M 5689 -1474 V 1067 M 5690 -2411 V 2796 M 5691 -1021 V 640 M 5692 -1781 V 3408 M 5693 -1472 V 1044 M 5694 -1948 V 2867 M 5695 -1260 V 2878 M 5696 -519 V 1140 M 5697 -1816 V 2561 M 5698 -2088 V 3698 M 5699 -1602 V 3715 M 5700 -1323 V 1340 M 5701 -759 V 370 M 5702 -1091 V 1281 M 5703 -955 V 321 M 5704 -325 V 260 M 5705 -229 V 373 M 5706 -285 V 211 M 5707 -219 V 143 M 5708 -223 V 305 M 5709 -251 V 276 M 5710 -244 V 199 M 5711 -483 V 547 M 5712 -1023 V 1566 M 5713 -1111 V 1389 M 5714 -1428 V 1181 M 5715 -1336 V 1475 M 5716 -1418 V 1823 M 5717 -1749 V 1349 M 5718 -1056 V 1157 M 5719 -950 V 1057 M 5720 -1185 V 1113 M 5721 -1344 V 1175 M 5722 -682 V 939 M 5723 -760 V 814 M 5724 -822 V 797 M 5725 -646 V 784 M 5726 -879 V 769 M 5727 -2398 V 1352 M 5728 -2290 V 2192 M 5729 -1470 V 595 M 5730 -2176 V 4048 M 5731 -2325 V 1561 M 5732 -3607 V 5273 M 5733 -2454 V 1566 M 5734 -2391 V 4520 M 5735 -1881 V 1901 M 5736 -2317 V 2625 M 5737 -2082 V 1814 M 5738 -3405 V 4890 M 5739 -3469 V 2104 M 5740 -2302 V 4078 M 5741 -2182 V 1855 M 5742 -2828 V 5773 M 5743 -3617 V 1988 M 5744 -1705 V 2064 M 5745 -2241 V 4709 M 5746 -1229 V 1762 M 5747 -616 V 1524 M 5748 -1289 V 816 M 5749 -795 V 927 M 5750 -546 V 427 M 5751 -402 V 496 M 5752 -1401 V 1624 M 5753 -667 V 640 M 5754 -473 V 381 M 5755 -342 V 608 M 5756 -362 V 380 M 5757 -293 V 239 M 5758 -285 V 332 M 5759 -792 V 825 M 5760 -774 V 876 M 5761 -1072 V 1075 M 5762 -954 V 662 M 5763 -1059 V 1305 M 5764 -1619 V 1289 M 5765 -1314 V 1293 M 5766 -1133 V 1128 M 5767 -1608 V 1797 M 5768 -1130 V 1129 M 5769 -1530 V 1486 M 5770 -1085 V 1078 M 5771 -1018 V 1086 M 5772 -1233 V 1232 M 5773 -761 V 660 M 5774 -761 V 757 M 5775 -800 V 883 M 5776 -596 V 548 M 5777 -318 V 453 M 5778 -216 V 318 M 5779 -189 V 149 M 5780 -155 V 104 M 5781 -137 V 167 M 5782 -162 V 112 M 5783 -77 V 99 M 5784 -71 V 63 M 5785 -157 V 59 M 5786 -67 V 113 M 5787 -43 V 54 M 5788 -57 V 65 M 5789 -79 V 62 M 5790 -48 V 30 M 5791 -35 V 60 M 5792 -59 V 39 M 5793 -58 V 64 M 5794 -61 V 68 M 5795 -76 V 76 M 5796 -106 V 69 M 5797 -30 V 57 M 5798 -64 V 51 M 5799 -55 V 37 M 5800 -33 V 57 M 5801 -166 V 451 M 5802 -1330 V 457 M 5803 -2400 V 2675 M 5804 -1372 V 1540 M 5805 -2689 V 2836 M 5806 -1317 V 2083 M 5807 -1395 V 2043 M 5808 -1659 V 2697 M 5809 -2929 V 2785 M 5810 -2843 V 2287 M 5811 -2764 V 2577 M 5812 -2332 V 4024 M 5813 -3678 V 1634 M 5814 -1708 V 1243 M 5815 -1880 V 1317 M 5816 -3987 V 3047 M 5817 -3210 V 2443 M 5818 -4133 V 3673 M 5819 -3226 V 2608 M 5820 -4016 V 4276 M 5821 -3085 V 2350 M 5822 -3870 V 3201 M 5823 -4000 V 5836 M 5824 -5600 V 5110 M 5825 -5489 V 6463 M 5826 -6051 V 3788 M 5827 -6031 V 7332 M 5828 -6569 V 4446 M 5829 -7746 V 8749 M 5830 -8805 V 8585 M 5831 -6254 V 13370 M 5832 -8403 V 11616 M 5833 -5191 V 3814 M 5834 -10772 V 17075 M 5835 -13717 V 8631 M 5836 -10044 V 16291 M 5837 -10004 V 8966 M 5838 -8034 V 12610 M 5839 -6589 V 13321 M 5840 -6923 V 5882 M 5841 -5085 V 12652 M 5842 -5733 V 6427 M 5843 -4395 V 10837 M 5844 -4636 V 6044 M 5845 -4622 V 5526 M 5846 -4826 V 4425 M 5847 -3365 V 6243 M 5848 -3651 V 4308 M 5849 -3617 V 6135 M 5850 -2511 V 3856 M 5851 -2574 V 7482 M 5852 -4306 V 6811 M 5853 -3046 V 2657 M 5854 -2606 V 4366 M 5855 -1964 V 1713 M 5856 -3806 V 3958 M 5857 -1758 V 1788 M 5858 -2653 V 5190 M 5859 -3222 V 2686 M 5860 -1455 V 2901 M 5861 -2253 V 2896 M 5862 -1082 V 441 M 5863 -1560 V 2837 M 5864 -1597 V 2041 M 5865 -2958 V 5216 M 5866 -1267 V 1773 M 5867 -1936 V 1707 M 5868 -859 V 824 M 5869 -1113 V 1434 M 5870 -1059 V 1596 M 5871 -401 V 456 M 5872 -770 V 1190 M 5873 -1125 V 816 M 5874 -1202 V 1300 M 5875 -1227 V 1400 M 5876 -564 V 471 M 5877 -1540 V 1438 M 5878 -1656 V 943 M 5879 -1221 V 2161 M 5880 -1595 V 856 M 5881 -1452 V 3028 M 5882 -1433 V 890 M 5883 -1262 V 779 M 5884 -568 V 1057 M 5885 -446 V 646 M 5886 -764 V 809 M 5887 -716 V 586 M 5888 -1023 V 787 M 5889 -903 V 1234 M 5890 -569 V 655 M 5891 -1226 V 2669 M 5892 -1787 V 1358 M 5893 -1037 V 795 M 5894 -945 V 804 M 5895 -1341 V 3534 M 5896 -1392 V 1065 M 5897 -599 V 1054 M 5898 -604 V 647 M 5899 -445 V 828 M 5900 -438 V 474 M 5901 -274 V 295 M 5902 -204 V 193 M 5903 -216 V 137 M 5904 -90 V 58 M 5905 -50 V 63 M 5906 -100 V 70 M 5907 -78 V 36 M 5908 -39 V 65 M 5909 -58 V 80 M 5910 -52 V 30 M 5911 -61 V 52 M 5912 -82 V 88 M 5913 -43 V 72 M 5914 -66 V 52 M 5915 -69 V 56 M 5916 -42 V 73 M 5917 -46 V 50 M 5918 -21 V 34 M 5919 -46 V 41 M 5920 -74 V 69 M 5921 -36 V 32 M 5922 -59 V 49 M 5923 -51 V 65 M 5924 -68 V 69 M 5925 -89 V 59 M 5926 -87 V 61 M 5927 -82 V 58 M 5928 -54 V 44 M 5929 -34 V 29 M 5930 -34 V 35 M 5931 -45 V 81 M 5932 -129 V 142 M 5933 -477 V 228 M 5934 -467 V 1192 M 5935 -1447 V 3943 M 5936 -3185 V 2670 M 5937 -3106 V 4059 M 5938 -3213 V 3097 M 5939 -3819 V 3573 M 5940 -4604 V 3452 M 5941 -4480 V 5356 M 5942 -2439 V 3268 M 5943 -2045 V 2290 M 5944 -2009 V 2234 M 5945 -1526 V 1442 M 5946 -1111 V 1111 M 5947 -1879 V 2070 M 5948 -1524 V 1345 M 5949 -1611 V 1489 M 5950 -1210 V 832 M 5951 -1410 V 1471 M 5952 -1037 V 1467 M 5953 -798 V 975 M 5954 -1273 V 2075 M 5955 -1528 V 1453 M 5956 -1654 V 2030 M 5957 -1535 V 1392 M 5958 -1425 V 1685 M 5959 -1235 V 1164 M 5960 -1240 V 1522 M 5961 -1091 V 841 M 5962 -1026 V 837 M 5963 -930 V 849 M 5964 -938 V 1015 M 5965 -938 V 936 M 5966 -1023 V 983 M 5967 -743 V 963 M 5968 -371 V 428 M 5969 -458 V 503 M 5970 -335 V 323 M 5971 -355 V 425 M 5972 -352 V 247 M 5973 -227 V 199 M 5974 -226 V 110 M 5975 -125 V 108 M 5976 -95 V 56 M 5977 -50 V 79 M 5978 -294 V 322 M 5979 -196 V 212 M 5980 -147 V 156 M 5981 -72 V 74 M 5982 -85 V 64 M 5983 -82 V 87 M 5984 -145 V 148 M 5985 -65 V 92 M 5986 -58 V 62 M 5987 -49 V 57 M 5988 -32 V 61 M 5989 -51 V 44 M 5990 -56 V 63 M 5991 -70 V 75 M 5992 -48 V 55 M 5993 -62 V 44 M 5994 -65 V 60 M 5995 -41 V 29 M 5996 -35 V 32 M 5997 -41 V 54 M 5998 -55 V 45 M 5999 -39 V 43 M 6000 -52 V 69 M 6001 -70 V 70 M 6002 -61 V 44 M 6003 -27 V 41 M 6004 -35 V 43 M 6005 -33 V 24 M 6006 -53 V 41 M 6007 -39 V 59 M 6008 -42 V 53 M 6009 -34 V 58 M 6010 -70 V 52 M 6011 -33 V 39 M 6012 -53 V 32 M 6013 -39 V 50 M 6014 -28 V 27 M 6015 -56 V 41 M 6016 -37 V 61 M 6017 -18 V 25 M 6018 -39 V 50 M 6019 -44 V 53 M 6020 -43 V 35 M 6021 -67 V 69 M 6022 -66 V 80 M 6023 -92 V 106 M 6024 -83 V 37 M 6025 -51 V 51 M 6026 -38 V 35 M 6027 -51 V 33 M 6028 -39 V 42 M 6029 -46 V 42 M 6030 -29 V 40 M 6031 -29 V 34 M 6032 -25 V 44 M 6033 -33 V 33 M 6034 -29 V 38 M 6035 -36 V 20 M 6036 -24 V 30 M 6037 -41 V 21 M 6038 -34 V 56 M 6039 -33 V 26 M 6040 -36 V 36 M 6041 -49 V 49 M 6042 -59 V 62 M 6043 -66 V 50 M 6044 -49 V 46 M 6045 -56 V 39 M 6046 -51 V 40 M 6047 -39 V 52 M 6048 -64 V 49 M 6049 -65 V 43 M 6050 -50 V 54 M 6051 -78 V 76 M 6052 -110 V 141 M 6053 -182 V 173 M 6054 -91 V 32 M 6055 -128 V 157 M 6056 -147 V 174 M 6057 -91 V 79 M 6058 -97 V 86 M 6059 -140 V 132 M 6060 -118 V 135 M 6061 -138 V 145 M 6062 -123 V 143 M 6063 -114 V 144 M 6064 -80 V 60 M 6065 -67 V 72 M 6066 -53 V 69 M 6067 -80 V 21 M 6068 -4 V 4 M 6069 -5 V 4 M 6070 -3 V 2 M 6071 -1 V 1 "/></g></svg>
